<svg width="44" height="44" viewBox="0 0 44 44" fill="none" xmlns="http://www.w3.org/2000/svg">
<rect x="4" y="4" width="36" height="36" rx="18" fill="#E2A328"/>
<rect x="2" y="2" width="40" height="40" rx="20" stroke="#E2A328" stroke-opacity="0.2" stroke-width="4"/>
<path opacity="0.7" d="M17.568 28.81L17.548 26.79C17.868 26.8567 18.2014 26.9167 18.548 26.97C18.8947 27.0167 19.2147 27.04 19.508 27.04C20.3147 27.04 21.028 26.9367 21.648 26.73C22.268 26.5233 22.7514 26.23 23.098 25.85C23.4447 25.4633 23.618 25.0133 23.618 24.5C23.618 24.1067 23.528 23.7467 23.348 23.42C23.168 23.0867 22.8747 22.8267 22.468 22.64C22.0614 22.4533 21.518 22.38 20.838 22.42L19.668 22.69L19.208 20.74C19.608 20.6667 19.988 20.5767 20.348 20.47C20.708 20.3567 21.0247 20.23 21.298 20.09C21.838 19.83 22.2447 19.52 22.518 19.16C22.798 18.7933 22.9447 18.3933 22.958 17.96C22.9847 17.3933 22.8114 16.9733 22.438 16.7C22.0647 16.4267 21.5814 16.29 20.988 16.29C20.308 16.29 19.7247 16.4 19.238 16.62C18.758 16.8333 18.3447 17.0633 17.998 17.31L17.038 15.44C17.2514 15.24 17.5914 15.0233 18.058 14.79C18.5247 14.5567 19.0614 14.36 19.668 14.2C20.2747 14.0333 20.8914 13.95 21.518 13.95C22.4314 13.95 23.228 14.0867 23.908 14.36C24.588 14.6333 25.1147 15.03 25.488 15.55C25.868 16.0633 26.058 16.69 26.058 17.43C26.058 18.0833 25.918 18.67 25.638 19.19C25.358 19.7033 24.978 20.1467 24.498 20.52C24.018 20.8933 23.4814 21.2 22.888 21.44V21.12C23.8014 21.1333 24.548 21.3133 25.128 21.66C25.7147 22 26.148 22.44 26.428 22.98C26.708 23.5133 26.848 24.0767 26.848 24.67C26.848 25.4767 26.5747 26.2267 26.028 26.92C25.488 27.6067 24.7214 28.16 23.728 28.58C22.7414 29 21.578 29.21 20.238 29.21C19.6914 29.21 19.1947 29.1633 18.748 29.07C18.3014 28.9833 17.908 28.8967 17.568 28.81Z" fill="#0B0F11"/>
</svg>
