<svg width="44" height="44" viewBox="0 0 44 44" fill="none" xmlns="http://www.w3.org/2000/svg">
<rect x="4" y="4" width="36" height="36" rx="18" fill="#E2A328"/>
<rect x="2" y="2" width="40" height="40" rx="20" stroke="#E2A328" stroke-opacity="0.2" stroke-width="4"/>
<path opacity="0.7" d="M16.5969 26.06L15.8769 24.87C16.1435 24.31 16.3969 23.7667 16.6369 23.24C16.8769 22.7067 17.1102 22.1867 17.3369 21.68C17.5702 21.1667 17.7969 20.66 18.0169 20.16C18.2369 19.66 18.4569 19.16 18.6769 18.66C18.8969 18.16 19.1202 17.6567 19.3469 17.15C19.5802 16.6433 19.8169 16.1233 20.0569 15.59C20.2969 15.0567 20.5469 14.5133 20.8069 13.96H21.7869L23.8269 15.1C23.5869 15.5467 23.3602 15.97 23.1469 16.37C22.9402 16.77 22.7402 17.16 22.5469 17.54C22.3535 17.9133 22.1635 18.2867 21.9769 18.66C21.7902 19.0267 21.5969 19.3967 21.3969 19.77C21.2035 20.1433 21.0002 20.5333 20.7869 20.94C20.5802 21.34 20.3569 21.76 20.1169 22.2L19.1369 23.84H28.1769V26.06H16.5969ZM23.0369 29V23.78L23.3369 19.56H25.9769V29H23.0369Z" fill="#0B0F11"/>
</svg>
