<svg width="44" height="44" viewBox="0 0 44 44" fill="none" xmlns="http://www.w3.org/2000/svg">
<rect x="4" y="4" width="36" height="36" rx="18" fill="#E2A328"/>
<rect x="2" y="2" width="40" height="40" rx="20" stroke="#E2A328" stroke-opacity="0.2" stroke-width="4"/>
<path opacity="0.7" d="M17.217 29L16.787 27.63C17.327 27.29 17.9003 26.88 18.507 26.4C19.1203 25.92 19.7203 25.39 20.307 24.81C20.8936 24.23 21.427 23.6167 21.907 22.97C22.387 22.3167 22.7703 21.65 23.057 20.97C23.3436 20.2833 23.487 19.6 23.487 18.92C23.487 18.1133 23.2836 17.5033 22.877 17.09C22.477 16.67 21.9203 16.46 21.207 16.46C20.5536 16.46 19.9303 16.5767 19.337 16.81C18.7436 17.0433 18.2736 17.3333 17.927 17.68L16.857 15.97C17.1236 15.6967 17.4803 15.41 17.927 15.11C18.3803 14.8033 18.9303 14.5433 19.577 14.33C20.2303 14.1167 20.987 14.01 21.847 14.01C23.0003 14.01 23.927 14.2233 24.627 14.65C25.3336 15.0767 25.8436 15.6433 26.157 16.35C26.477 17.0567 26.637 17.8267 26.637 18.66C26.637 19.66 26.3903 20.6433 25.897 21.61C25.4103 22.57 24.737 23.4867 23.877 24.36C23.0236 25.2333 22.0503 26.0433 20.957 26.79L27.177 26.52V29H17.217Z" fill="#0B0F11"/>
</svg>
