<svg width="18" height="20" viewBox="0 0 18 20" fill="none" xmlns="http://www.w3.org/2000/svg">
<g clip-path="url(#clip0_354_4711)">
<path d="M17.465 9.99964C17.465 10.5172 17.0447 10.9375 16.5271 10.9375H3.27752L8.46111 15.8828C8.83709 16.2405 8.85053 16.8364 8.49283 17.2086C8.13518 17.5834 7.54205 17.5968 7.16705 17.2404L0.292051 10.6779C0.105449 10.5035 0.000488281 10.2575 0.000488281 9.99964C0.000488281 9.74183 0.105449 9.49964 0.290996 9.31996L7.166 2.75746C7.53924 2.40238 8.13299 2.41566 8.49236 2.79066C8.85002 3.16175 8.83658 3.75746 8.46061 4.11644L3.27701 9.06175H16.5622C17.0783 9.06214 17.465 9.48402 17.465 9.99964Z" fill="#315576"/>
</g>
<defs>
<clipPath id="clip0_354_4711">
<rect width="17.5" height="20" fill="white"/>
</clipPath>
</defs>
</svg>
