<svg width="78" height="78" viewBox="0 0 78 78" fill="none" xmlns="http://www.w3.org/2000/svg">
<path d="M6 2.5H18.5L70.5 2L73.5 4L75 6.5V46.5L73.5 49L71.5 50.5H69.5V49L69 46.5L67 44L63.5 43L61 43.5L59 45L57.5 47.5L57 50H45V47.5L43.5 45L41 43H38L35 44.5L33 47V50H21L20.5 46.5L18 44L14.5 42.5L11 44L9 46.5L8.5 50H6.5L3 46.5V5.5L6 2.5Z" fill="#F7E6C5"/>
<path d="M7.68181 51.6454H7.91817C8.98181 54.3636 11.7 56.3727 14.7727 56.3727C17.9636 56.3727 20.5636 54.3636 21.6273 51.6454H32.1454C33.2091 54.3636 35.9273 56.3727 39 56.3727C42.0727 56.3727 44.7909 54.3636 45.8545 51.6454H56.3727C57.4364 54.3636 60.1545 56.3727 63.2273 56.3727C66.3 56.3727 69.0182 54.3636 70.0818 51.6454H70.3182C73.5091 51.6454 76.1091 49.0454 76.1091 45.8545V6.85451C76.1091 3.6636 73.5091 1.0636 70.3182 1.0636H7.68181C4.4909 1.18178 1.8909 3.78178 1.8909 6.97269V45.9727C1.8909 49.0454 4.4909 51.6454 7.68181 51.6454ZM14.6545 54.009C8.03635 54.009 8.03635 43.9636 14.6545 43.9636C17.3727 43.9636 19.6182 46.2091 19.6182 48.9272C19.7364 51.6454 17.4909 54.009 14.6545 54.009ZM39 54.009C36.1636 54.009 34.0364 51.6454 34.0364 49.0454C34.0364 46.3272 36.2818 44.0818 39 44.0818C41.7182 44.0818 43.9636 46.3272 43.9636 49.0454C43.9636 51.6454 41.8364 54.009 39 54.009ZM63.3454 54.009C60.5091 54.009 58.3818 51.7636 58.3818 49.0454C58.3818 46.3272 60.6273 44.0818 63.3454 44.0818C66.0636 44.0818 68.3091 46.3272 68.3091 49.0454C68.3091 51.6454 66.0636 54.009 63.3454 54.009ZM4.25454 6.97269C4.25454 5.08178 5.7909 3.54542 7.68181 3.54542H70.4363C72.3273 3.54542 73.8636 5.08178 73.8636 6.97269V45.9727C73.8636 47.7454 72.4454 49.1636 70.7909 49.2818C70.7909 49.1636 70.7909 49.1636 70.7909 49.0454C70.7909 45.0272 67.4818 41.7181 63.4636 41.7181C59.4454 41.7181 56.1364 45.0272 56.1364 49.0454V49.2818H46.5636C46.5636 49.1636 46.5636 49.1636 46.5636 49.0454C46.5636 45.0272 43.2545 41.7181 39.2364 41.7181C35.2182 41.7181 31.9091 45.0272 31.9091 49.0454V49.2818H22.3364C22.3364 49.1636 22.3364 49.1636 22.3364 49.0454C22.3364 45.0272 19.0273 41.7181 15.0091 41.7181C10.9909 41.7181 7.68181 45.0272 7.68181 49.0454V49.2818C5.90908 49.1636 4.60908 47.7454 4.60908 45.9727V6.97269H4.25454Z" fill="black"/>
<path d="M69.1364 59.6818H57.4364C54.8364 59.6818 52.4727 61.0999 51.1727 63.109C49.8727 61.0999 47.5091 59.6818 44.9091 59.6818H33.0909C30.4909 59.6818 28.1273 61.0999 26.8273 63.109C25.5273 61.0999 23.1636 59.6818 20.5636 59.6818H8.86364C4.72727 59.6818 1.41818 62.9909 1.41818 67.1272V75.6363C1.41818 76.3454 1.89091 76.8181 2.6 76.8181H75.4C76.1091 76.8181 76.5818 76.3454 76.5818 75.6363V67.1272C76.5818 62.9909 73.2727 59.6818 69.1364 59.6818ZM3.78182 67.1272C3.78182 64.2909 6.02727 62.0454 8.86364 62.0454H20.5636C23.4 62.0454 25.6455 64.2909 25.6455 67.1272V74.4545H3.78182V67.1272ZM28.0091 67.1272C28.0091 64.2909 30.2545 62.0454 33.0909 62.0454H44.9091C47.7455 62.0454 49.9909 64.2909 49.9909 67.1272V74.4545H28.0091V67.1272ZM74.2182 74.4545H52.3545V67.1272C52.3545 64.2909 54.6 62.0454 57.4364 62.0454H69.1364C71.9727 62.0454 74.2182 64.2909 74.2182 67.1272V74.4545Z" fill="black"/>
</svg>
