<svg width="78" height="78" viewBox="0 0 78 78" fill="none" xmlns="http://www.w3.org/2000/svg">
<path d="M8.51667 32.5195L18.2836 42.287C18.6412 42.6445 18.8378 43.1196 18.8378 43.6249V53.2677C18.8378 53.8499 19.3101 54.3222 19.8923 54.3222C20.4745 54.3222 20.9468 53.8499 20.9468 53.2677V43.6249C20.9468 42.5561 20.5305 41.5516 19.7748 40.7958L9.26198 30.283C8.85005 29.8711 8.18274 29.8711 7.77082 30.283L5.64256 32.4107C5.44868 32.6046 5.11475 32.4635 5.11475 32.1921V21.5585C5.11475 21.1795 5.42286 20.8714 5.80183 20.8714H16.4355C16.7112 20.8714 16.8479 21.2054 16.6541 21.3992C16.6541 21.3992 14.528 23.5259 14.5263 23.5275C14.1194 23.9345 14.1194 24.6122 14.5263 25.0187L27.3014 37.7937C28.0044 38.4967 28.3916 39.4315 28.3916 40.4256V72.7434H20.9468V57.4858C20.9468 56.9036 20.4745 56.4313 19.8923 56.4313C19.3101 56.4313 18.8378 56.9036 18.8378 57.4858V73.7974C18.8378 74.3801 19.3101 74.8519 19.8923 74.8519H29.4461C30.0283 74.8519 30.5007 74.3801 30.5007 73.7974V40.4256C30.5007 38.868 29.8938 37.4038 28.7926 36.302L16.7633 24.2728C16.7633 24.2728 18.1436 22.892 18.1458 22.8904C19.6397 21.3959 18.5412 18.7618 16.4355 18.7618H5.80183C4.26015 18.7618 3.00571 20.0163 3.00571 21.5585V32.1921C3.00571 34.2809 5.63322 35.4029 7.13426 33.9019L8.51667 32.5195Z" fill="black"/>
<path d="M72.693 46.1233C72.5848 46.1677 72.4524 46.1546 72.3569 46.059C72.3569 46.059 70.2325 43.934 70.2292 43.9307C69.8046 43.5062 69.0895 43.5287 68.6924 43.9791L65.6426 47.4376C65.257 47.8742 65.2987 48.5404 65.7354 48.926C66.1726 49.311 66.8388 49.2692 67.2238 48.8326L69.5316 46.2161C69.5316 46.2161 70.8646 47.549 70.8657 47.5501C72.3602 49.0446 74.9943 47.9461 74.9943 45.8404V35.2068C74.9943 33.6651 73.7398 32.4106 72.1982 32.4106C72.1982 32.4106 61.5755 32.4106 61.5645 32.4106C59.4555 32.4106 58.3631 35.0475 59.8542 36.5387L61.2366 37.9211L49.2074 49.9503C48.1057 51.052 47.4993 52.5163 47.4993 54.0739V73.7973C47.4993 74.38 47.9717 74.8518 48.5538 74.8518H58.1077C58.6899 74.8518 59.1622 74.38 59.1622 73.7973V58.6792C59.1622 58.1733 59.3588 57.6983 59.7164 57.3413C59.7317 57.3259 59.7471 57.3094 59.7614 57.2929L64.4535 51.9736C64.8385 51.537 64.7967 50.8702 64.3601 50.4852C63.9235 50.1002 63.2567 50.142 62.8717 50.5786L58.1999 55.8754C57.4601 56.6278 57.0532 57.6219 57.0532 58.6792V72.7427H49.6084V54.0739C49.6084 53.0798 49.9956 52.145 50.6986 51.4414C50.6986 51.4414 63.4627 38.6774 63.4736 38.6669C63.8806 38.2599 63.8801 37.5822 63.4736 37.1758C63.4736 37.1758 61.3635 35.0656 61.3454 35.0475C61.1625 34.8646 61.2773 34.5197 61.564 34.5197H72.1976C72.5766 34.5197 72.8847 34.8278 72.8847 35.2068V45.8398C72.8852 45.9761 72.8012 46.0782 72.693 46.1233Z" fill="black"/>
<path d="M30 13L39 4L48 13V14H43.5V73.5H34V14H30V13Z" fill="#F7E6C5"/>
<path d="M34.2228 74.8518H43.7766C44.3594 74.8518 44.8312 74.38 44.8312 73.7973V15.4554H46.7864C48.8944 15.4554 49.9879 12.8191 48.4962 11.3274C48.4962 11.3274 40.9805 3.81175 40.9772 3.8079C39.8991 2.73031 38.0993 2.73141 37.0228 3.8079L29.5038 11.3268C28.0099 12.8208 29.1084 15.4554 31.2136 15.4554H33.1683V73.7973C33.1683 74.38 33.6406 74.8518 34.2228 74.8518ZM31.2136 13.3464C30.9516 13.3464 30.7962 13.0168 30.995 12.8186C30.995 12.8186 38.5018 5.31169 38.5139 5.29961C38.7798 5.03323 39.2197 5.03323 39.4861 5.29961C39.4861 5.29961 46.9951 12.8087 47.005 12.8186C47.1907 13.0036 47.0671 13.3464 46.7864 13.3464H43.7766C43.1945 13.3464 42.7221 13.8187 42.7221 14.4009V72.7428H35.2773V14.4009C35.2773 13.8187 34.8055 13.3464 34.2228 13.3464C34.2228 13.3464 31.2213 13.3464 31.2136 13.3464Z" fill="black"/>
</svg>
