<svg width="56" height="40" viewBox="0 0 56 40" fill="none" xmlns="http://www.w3.org/2000/svg">
<g clip-path="url(#clip0_215_185)">
<path fill-rule="evenodd" clip-rule="evenodd" d="M0 0H56V40H0V0Z" fill="url(#paint0_linear_215_185)"/>
<path fill-rule="evenodd" clip-rule="evenodd" d="M26.6667 0H56V40H26.6667V0ZM0 0H18.6667V40H0V0Z" fill="url(#paint1_linear_215_185)"/>
<path fill-rule="evenodd" clip-rule="evenodd" d="M16 0H40V40H16V0Z" fill="url(#paint2_linear_215_185)"/>
<path fill-rule="evenodd" clip-rule="evenodd" d="M31.1307 19.536L32.8693 17.7974C32.9327 17.7364 33.0075 17.6885 33.0893 17.6565C33.1712 17.6244 33.2586 17.6088 33.3465 17.6105C33.4344 17.6123 33.5212 17.6313 33.6017 17.6666C33.6823 17.7018 33.7551 17.7526 33.816 17.816L34.6667 18.6667L37.3333 17.3334L36 20L36.8533 20.8534C36.917 20.9132 36.9681 20.9851 37.0037 21.065C37.0393 21.1448 37.0586 21.2309 37.0606 21.3182C37.0626 21.4056 37.0472 21.4925 37.0152 21.5738C36.9833 21.6551 36.9355 21.7293 36.8747 21.792L33.3333 25.3334H29.3333L28.6667 29.3334H27.3333L26.6667 25.3334H22.6667L19.1253 21.792C19.0058 21.6629 18.9415 21.4923 18.9459 21.3165C18.9504 21.1406 19.0234 20.9735 19.1493 20.8507L20 20L18.6667 17.3334L21.3333 18.6667L22.1867 17.8134C22.2473 17.7499 22.32 17.6991 22.4005 17.6639C22.4809 17.6287 22.5675 17.6098 22.6553 17.6083C22.7431 17.6069 22.8303 17.6228 22.9119 17.6552C22.9935 17.6877 23.0679 17.736 23.1307 17.7974L24.8693 19.536C25.1253 19.792 25.2747 19.704 25.2 19.336L24 13.3334L26.6667 14.6667L28 10.6667L29.3333 14.6667L32 13.3334L30.8 19.336C30.7227 19.7147 30.8747 19.792 31.1307 19.536Z" fill="url(#paint3_linear_215_185)"/>
</g>
<defs>
<linearGradient id="paint0_linear_215_185" x1="2800" y1="0" x2="2800" y2="4000" gradientUnits="userSpaceOnUse">
<stop stop-color="white"/>
<stop offset="1" stop-color="#F0F0F0"/>
</linearGradient>
<linearGradient id="paint1_linear_215_185" x1="2800" y1="0" x2="2800" y2="4000" gradientUnits="userSpaceOnUse">
<stop stop-color="#FF3131"/>
<stop offset="1" stop-color="#FF0000"/>
</linearGradient>
<linearGradient id="paint2_linear_215_185" x1="1216" y1="0" x2="1216" y2="4000" gradientUnits="userSpaceOnUse">
<stop stop-color="white"/>
<stop offset="1" stop-color="#F0F0F0"/>
</linearGradient>
<linearGradient id="paint3_linear_215_185" x1="952" y1="10.6667" x2="952" y2="1877.33" gradientUnits="userSpaceOnUse">
<stop stop-color="#FF3131"/>
<stop offset="1" stop-color="#FF0000"/>
</linearGradient>
<clipPath id="clip0_215_185">
<rect width="56" height="40" fill="white"/>
</clipPath>
</defs>
</svg>
