<svg width="28" height="28" viewBox="0 0 28 28" fill="none" xmlns="http://www.w3.org/2000/svg">
<g clip-path="url(#clip0_294_1433)">
<path d="M14 0C6.26719 0 0 6.26719 0 14C0 21.7328 6.26719 28 14 28C21.7328 28 28 21.7328 28 14C28 6.26719 21.7328 0 14 0ZM14 25.375C7.72734 25.375 2.625 20.2721 2.625 14C2.625 7.72789 7.72734 2.625 14 2.625C20.2727 2.625 25.375 7.72789 25.375 14C25.375 20.2721 20.2727 25.375 14 25.375ZM14 16.625C14.7246 16.625 15.3125 16.0371 15.3125 15.3125V8.3125C15.3125 7.59062 14.7273 7 14 7C13.2727 7 12.6875 7.59062 12.6875 8.3125V15.3125C12.6875 16.0398 13.2781 16.625 14 16.625ZM14 18.4352C13.0506 18.4352 12.2806 19.2052 12.2806 20.1545C12.2828 21.1039 13.0484 21.875 14 21.875C14.9516 21.875 15.7194 21.105 15.7194 20.1556C15.7172 19.2062 14.9516 18.4352 14 18.4352Z" fill="#402D0A"/>
</g>
<defs>
<clipPath id="clip0_294_1433">
<rect width="28" height="28" fill="white"/>
</clipPath>
</defs>
</svg>
