<svg width="78" height="78" viewBox="0 0 78 78" fill="none" xmlns="http://www.w3.org/2000/svg">
<path d="M6 60.5851H72" stroke="#0B0F11" stroke-width="2.5" stroke-miterlimit="10" stroke-linecap="round" stroke-linejoin="round"/>
<path d="M17.0913 44.1535H11.6141C10.8578 44.1535 10.2448 44.7666 10.2448 45.5228V60.5851H18.4606V45.5228C18.4606 44.7666 17.8475 44.1535 17.0913 44.1535Z" stroke="#0B0F11" stroke-width="2.5" stroke-miterlimit="10" stroke-linecap="round" stroke-linejoin="round"/>
<path d="M33.5228 39.2241H28.0456C27.2894 39.2241 26.6764 39.8371 26.6764 40.5934V60.5851H34.8921V40.5934C34.8921 39.8371 34.2791 39.2241 33.5228 39.2241Z" stroke="#0B0F11" stroke-width="2.5" stroke-miterlimit="10" stroke-linecap="round" stroke-linejoin="round"/>
<path d="M49.9544 31.693H44.4772C43.7209 31.693 43.1079 32.306 43.1079 33.0622V60.5851H51.3237V33.0622C51.3237 32.306 50.7106 31.693 49.9544 31.693Z" stroke="#0B0F11" stroke-width="2.5" stroke-miterlimit="10" stroke-linecap="round" stroke-linejoin="round"/>
<path d="M67.2917 21.2933H63.7386C62.9823 21.2933 62.3693 21.9064 62.3693 22.6626V59.7073H68.661V22.6626C68.661 21.9064 68.048 21.2933 67.2917 21.2933Z" fill="#F7E6C5"/>
<path d="M66.3859 18H60.9087C60.1525 18 59.5394 18.613 59.5394 19.3693V60.5851H67.7552V19.3693C67.7552 18.613 67.1422 18 66.3859 18Z" stroke="#0B0F11" stroke-width="2.5" stroke-miterlimit="10" stroke-linecap="round" stroke-linejoin="round"/>
</svg>
