<svg width="78" height="78" viewBox="0 0 78 78" fill="none" xmlns="http://www.w3.org/2000/svg">
<path d="M60.847 57.868L66.8053 56.875V49.9236L63.8262 43.9653L62.3366 41.4826L61.8401 34.0347L60.847 27.5798L55.8817 22.118L51.9095 19.6354L54.3921 15.1666L55.8817 9.20831V6.22915L53.8956 4.73956H51.413L49.4269 7.2222L47.9373 5.73262L44.9581 4.73956L42.972 5.73262L40.9859 9.20831H38.9998H37.5102L36.5171 11.1944L41.4824 20.1319L37.5102 21.6215L32.5449 27.5798L30.5588 35.0278V41.4826L28.0762 45.9514V47.9375L33.538 49.4271L40.9859 51.9097L48.9303 54.3923L51.9095 56.875L52.406 59.8541L60.847 57.868Z" fill="#F7E6C5"/>
<path d="M45.1087 44.9583V44.8083H44.9587H43.4691C42.7286 44.8083 42.1295 44.2092 42.1295 43.4687C42.1295 42.7282 42.7286 42.1291 43.4691 42.1291H46.4482C47.3531 42.1291 48.0879 41.3943 48.0879 40.4895C48.0879 39.5846 47.3529 38.8498 46.4482 38.8498C44.0668 38.8498 42.1295 36.9125 42.1295 34.5311C42.1295 32.6582 43.3356 31.0748 45.009 30.478L45.1086 30.4425V30.3367V30.0623C45.1086 29.3218 45.7077 28.7227 46.4482 28.7227C47.1888 28.7227 47.7879 29.3218 47.7879 30.0623V30.2123H47.9379H49.4275C50.168 30.2123 50.7671 30.8114 50.7671 31.552C50.7671 32.2925 50.168 32.8916 49.4275 32.8916H46.4484C45.5436 32.8916 44.8087 33.6264 44.8087 34.5312C44.8087 35.436 45.5437 36.1708 46.4484 36.1708C48.8298 36.1708 50.7671 38.1082 50.7671 40.4896C50.7671 42.3624 49.5611 43.9459 47.8876 44.5426L47.788 44.5782V44.6839V44.9583C47.788 45.6989 47.1889 46.298 46.4484 46.298C45.7079 46.298 45.1087 45.6989 45.1087 44.9583Z" fill="black" stroke="#F7E6C5" stroke-width="0.3"/>
<path d="M68.4932 55.7725L68.5171 55.6498C68.534 55.563 68.556 55.4721 68.5771 55.3847C68.5903 55.3301 68.6032 55.2768 68.6143 55.2267C68.6446 55.0899 68.6666 54.9589 68.6666 54.8268C68.6666 52.2792 67.7038 49.3481 66.6065 46.8378C65.5106 44.3306 64.2868 42.2573 63.7771 41.4294L63.7587 41.3995L63.7585 41.3644C63.7347 35.7687 63.2253 30.9469 61.7081 27.1792C60.1936 23.4183 57.6754 20.708 53.6223 19.325L53.5063 19.2854L53.5436 19.1686C53.919 17.9948 54.5959 16.434 55.2214 15.0032C55.8226 13.6274 56.4048 12.2951 56.837 11.0915C57.27 9.88562 57.5471 8.82264 57.5471 7.98352C57.5471 6.8297 57.1887 5.67725 56.4373 4.81519C55.6882 3.95589 54.54 3.375 52.9372 3.375C51.8623 3.375 51.137 3.62837 50.6287 3.98076C50.1196 4.33374 49.8168 4.79383 49.6 5.22746L49.5174 5.39267L49.3947 5.25457C49.3834 5.24187 49.3679 5.22396 49.3537 5.20756C49.3429 5.19503 49.3328 5.18338 49.326 5.17562C49.0217 4.83135 48.6256 4.38415 48.0099 4.02056C47.3959 3.65792 46.5568 3.375 45.3656 3.375C42.7179 3.375 40.9782 5.68484 40.1239 7.62227L40.0928 7.69284L40.0158 7.69668C38.9141 7.75172 37.3445 8.01383 36.33 8.9565C35.6882 9.55366 35.3486 10.3378 35.3486 11.2288C35.3486 11.9746 35.6173 12.7882 36.0396 13.6588C36.4615 14.5285 37.0301 15.4424 37.6194 16.3894C38.204 17.329 38.8225 18.3433 39.2185 19.2046L39.2758 19.3292L39.1463 19.3747C35.1487 20.7788 32.6621 23.4918 31.1655 27.243C29.6662 31.0008 29.161 35.7999 29.1372 41.3658L29.1371 41.4008L29.1187 41.4306C28.6309 42.2253 27.4771 44.2173 26.4092 46.6108L26.3792 46.678L26.306 46.6844C23.9399 46.8914 21.8947 47.3548 20.6063 47.7093L20.4871 47.7421L20.453 47.6233C20.0167 46.1063 18.779 44.8845 17.1394 44.5571L17.1394 44.5571L5.00778 42.131L68.4932 55.7725ZM68.4932 55.7725L68.6159 55.7964M68.4932 55.7725L68.6159 55.7964M68.6159 55.7964C72.2819 56.5118 74.625 58.5988 74.625 61.3438C74.625 61.8847 74.3052 62.3752 73.8095 62.5936C72.7158 63.0734 71.037 63.8986 69.0107 64.8945L68.9518 64.9235L68.9495 64.9246C65.015 66.8587 60.0796 69.285 55.406 71.2279C53.0688 72.1995 50.7992 73.0494 48.7546 73.6562C46.7083 74.2636 44.8953 74.625 43.4688 74.625C41.848 74.625 39.6685 74.1803 37.2508 73.4828C34.8356 72.7861 32.1924 71.8402 29.6479 70.8438C24.559 68.8511 19.8719 66.6596 18.206 65.8654L18.0867 65.8086M68.6159 55.7964L18.0867 65.8086M18.0867 65.8086L18.0365 65.9308M18.0867 65.8086L18.0365 65.9308M18.0365 65.9308C17.3797 67.5314 15.8558 68.6668 14.0728 68.6668H4.73963C3.9853 68.6668 3.375 68.0565 3.375 67.3021V43.4688C3.375 43.0599 3.55876 42.6735 3.87462 42.4134M18.0365 65.9308L3.87462 42.4134M6.10412 65.9375V65.8125V45.2856V45.1331L6.25363 45.163L16.6037 47.233L16.6038 47.233C17.444 47.4018 18.007 48.1963 17.8856 49.0447L15.6701 64.5514L6.10412 65.9375ZM6.10412 65.9375H6.22912M6.10412 65.9375H6.22912M6.22912 65.9375H14.0728C14.8709 65.9375 15.5581 65.3421 15.6701 64.5516L6.22912 65.9375ZM38.152 10.9902L38.1875 10.957C38.3171 10.8365 38.5062 10.7439 38.7183 10.672C38.9326 10.5993 39.1811 10.5441 39.4389 10.5039C39.9541 10.4236 40.5179 10.4017 40.942 10.4262L40.95 10.4266L40.9499 10.4269C41.5742 10.5029 42.1573 10.0745 42.3442 9.46407L42.3443 9.46361C42.479 9.02966 42.8238 8.1995 43.3323 7.47505C43.8357 6.75796 44.5281 6.10412 45.3657 6.10412C45.9184 6.10412 46.2818 6.18457 46.5695 6.34266C46.8507 6.49718 47.048 6.72062 47.2723 6.97467L47.2807 6.9842L38.152 10.9902ZM38.152 10.9902L38.1481 11.0386M38.152 10.9902L38.1481 11.0386M38.1481 11.0386C38.1287 11.2828 38.1882 11.573 38.2922 11.8818C38.3969 12.1929 38.5505 12.5336 38.7291 12.8828C39.0854 13.5795 39.5472 14.3214 39.9346 14.9437L39.9369 14.9475C40.7244 16.2134 41.4518 17.4151 41.9034 18.5576L41.9407 18.652L42.0408 18.6348C43.3795 18.4049 44.8321 18.2707 46.448 18.2707C48.0236 18.2707 49.4397 18.4015 50.7518 18.6205L50.8602 18.6386L50.892 18.5334C51.2983 17.1909 51.9843 15.5954 52.7216 13.9105L52.7216 13.9104C53.1861 12.847 53.709 11.6502 54.1155 10.5813C54.3189 10.0468 54.4939 9.54225 54.6182 9.10095C54.7419 8.66196 54.8181 8.27654 54.8181 7.98352C54.8181 7.0712 54.483 6.58625 54.0579 6.34023C53.6498 6.10407 53.1829 6.1041 52.9435 6.10412L52.9373 6.10412C52.6592 6.10412 52.4746 6.1303 52.356 6.15871C52.2966 6.17293 52.2535 6.18778 52.2234 6.20036C52.2083 6.20664 52.1964 6.2124 52.1872 6.21728C52.1827 6.21971 52.1786 6.22201 52.1751 6.22415L52.1695 6.22768L52.1655 6.23042L52.1616 6.23332L52.1615 6.23334C52.161 6.23374 52.1554 6.23798 52.1493 6.24408L52.1491 6.24389L52.1437 6.25009C52.1249 6.27153 52.1087 6.30113 52.0976 6.32242C52.0845 6.34746 52.0704 6.37719 52.0565 6.40777C52.0314 6.46271 52.0049 6.52511 51.9831 6.57626L51.9758 6.59331L51.9756 6.59369M38.1481 11.0386L51.9756 6.59369M51.9756 6.59369C51.7738 7.07146 51.2645 8.26727 49.692 8.26727C48.4194 8.26727 47.7469 7.51131 47.2807 6.98428L51.9756 6.59369ZM61.2481 42.5327L61.2483 42.533L61.2483 42.5331C61.2751 42.5749 62.4444 44.4045 63.608 46.841C64.7703 49.2747 65.9375 52.3352 65.9375 54.8268C65.9375 55.0354 65.8963 55.2365 65.8183 55.4356L65.7876 55.5139L65.7035 55.515C64.2457 55.5334 62.0416 55.9369 59.8163 56.4472C57.5943 56.9568 55.3622 57.5702 53.8532 58.0038L53.7084 58.0454L53.6942 57.8955C53.4975 55.8201 52.072 54.4023 49.9623 53.3548C47.8512 52.3065 45.0817 51.6433 42.251 51.0683C42.251 51.0683 42.251 51.0683 42.251 51.0683L42.2759 50.9458L61.2481 42.5327ZM61.2481 42.5327C61.1068 42.3129 61.0308 42.0555 61.0308 41.793C61.0308 34.1604 60.0862 28.9586 57.7821 25.665C55.469 22.3584 51.8057 21 46.4479 21C41.0901 21 37.4268 22.3584 35.1136 25.665C32.8096 28.9586 31.8649 34.1604 31.8649 41.793C31.8649 42.054 31.789 42.3113 31.6476 42.5313L61.2481 42.5327ZM18.6423 63.0509L18.6552 62.9608L20.4087 50.686L20.4199 50.6079L20.4951 50.5844C21.5833 50.2436 24.9146 49.3021 28.5729 49.3021C30.7992 49.3021 32.5185 50.1308 34.6556 51.1609L34.6728 51.1692L34.6729 51.1692C36.6015 52.1001 38.7768 53.1484 41.7072 53.7442C41.7072 53.7442 41.7073 53.7442 41.7073 53.7442L41.6824 53.8667L18.6423 63.0509ZM18.6423 63.0509L18.724 63.0908M18.6423 63.0509L18.724 63.0908M18.724 63.0908C18.7279 63.0927 18.7317 63.0943 18.7353 63.0957C18.7432 63.0988 18.7502 63.1007 18.7558 63.1019C21.274 64.3263 26.0821 66.5203 30.94 68.41C33.373 69.3564 35.8203 70.2272 37.9995 70.8615C40.1757 71.4949 42.0953 71.8959 43.4688 71.8959C44.7597 71.8959 46.4768 71.523 48.4298 70.9149M18.724 63.0908L48.4298 70.9149M31.9397 57.0559L31.9394 57.0558C31.215 56.8387 30.4581 57.2539 30.2434 57.9768C30.0289 58.6989 30.4418 59.4585 31.1642 59.6731C38.0216 61.706 43.2545 62.7155 46.9541 62.7155C49.3687 62.7155 51.1108 62.286 52.2296 61.45L52.2297 61.4499C52.2718 61.4186 52.3096 61.3827 52.3505 61.3416C52.3898 61.3023 52.435 61.255 52.4841 61.2117L52.5138 61.1854L52.5534 61.1811C52.5911 61.177 52.6318 61.1758 52.6657 61.1748C52.6782 61.1745 52.6898 61.1742 52.7 61.1737C52.7425 61.1719 52.7761 61.1681 52.8074 61.1586C52.8075 61.1586 52.8076 61.1586 52.8077 61.1585L52.8442 61.2781L31.9397 57.0559ZM31.9397 57.0559C38.8971 59.12 43.309 59.8569 46.104 59.9872M31.9397 57.0559L46.104 59.9872M3.87462 42.4134C4.19017 42.1552 4.60731 42.0523 5.0074 42.1309L3.87462 42.4134ZM48.4298 70.9149C50.3854 70.3061 52.5875 69.4582 54.8522 68.5012M48.4298 70.9149L54.8522 68.5012M54.8522 68.5012C59.3815 66.5872 64.169 64.2335 67.747 62.4743M54.8522 68.5012L67.747 62.4743M67.747 62.4743C67.747 62.4743 67.747 62.4743 67.747 62.4742L67.747 62.4743ZM46.104 59.9872C48.8947 60.1173 50.0909 59.6435 50.597 59.2634L46.104 59.9872ZM40.9348 10.551C41.6272 10.6353 42.2615 10.1611 42.4637 9.50066C42.7269 8.65258 43.8223 6.22912 45.3657 6.22912C46.4473 6.22912 46.7255 6.54429 47.1861 7.06593L40.9348 10.551ZM18.7703 63.1046C18.7713 63.1047 18.7709 63.1046 18.7702 63.1045L18.7703 63.1046ZM18.7445 63.0964C18.7438 63.0961 18.7432 63.0958 18.7426 63.0955L18.7428 63.0956C18.7434 63.0959 18.7439 63.0962 18.7445 63.0964Z" fill="black" stroke="white" stroke-width="0.25"/>
</svg>
