<svg width="44" height="44" viewBox="0 0 44 44" fill="none" xmlns="http://www.w3.org/2000/svg">
<rect x="4" y="4" width="36" height="36" rx="18" fill="#E2A328"/>
<rect x="2" y="2" width="40" height="40" rx="20" stroke="#E2A328" stroke-opacity="0.2" stroke-width="4"/>
<path opacity="0.7" d="M18.8007 29C19.0674 28.44 19.3507 27.8233 19.6507 27.15C19.9507 26.4767 20.2607 25.77 20.5807 25.03C20.9007 24.2833 21.2174 23.5333 21.5307 22.78C21.8507 22.0267 22.1574 21.29 22.4507 20.57C22.744 19.85 23.0174 19.1767 23.2707 18.55C23.524 17.9167 23.744 17.36 23.9307 16.88L17.0007 16.86L17.0107 14.14H26.6907L27.3607 15.08L22.2307 29H18.8007Z" fill="#0B0F11"/>
</svg>
