<svg width="44" height="44" viewBox="0 0 44 44" fill="none" xmlns="http://www.w3.org/2000/svg">
<rect x="4" y="4" width="36" height="36" rx="18" fill="#E2A328"/>
<rect x="2" y="2" width="40" height="40" rx="20" stroke="#E2A328" stroke-opacity="0.2" stroke-width="4"/>
<path opacity="0.7" d="M22.1203 29.16C21.3203 29.16 20.5803 29.0767 19.9003 28.91C19.227 28.7367 18.6403 28.4867 18.1403 28.16C17.6403 27.8267 17.2536 27.4133 16.9803 26.92C16.707 26.4267 16.5703 25.8567 16.5703 25.21C16.5703 24.69 16.697 24.1733 16.9503 23.66C17.2036 23.14 17.6203 22.6533 18.2003 22.2C18.7803 21.7467 19.5536 21.36 20.5203 21.04L21.7603 22.29C21.3136 22.47 20.917 22.6933 20.5703 22.96C20.2236 23.22 19.9503 23.5233 19.7503 23.87C19.5503 24.2167 19.4503 24.61 19.4503 25.05C19.4503 25.45 19.5403 25.82 19.7203 26.16C19.907 26.4933 20.197 26.76 20.5903 26.96C20.9903 27.16 21.5003 27.26 22.1203 27.26C22.5203 27.26 22.8936 27.18 23.2403 27.02C23.587 26.8533 23.867 26.6233 24.0803 26.33C24.2936 26.0367 24.4003 25.6967 24.4003 25.31C24.4003 24.8967 24.267 24.54 24.0003 24.24C23.7403 23.9333 23.3903 23.6567 22.9503 23.41C22.517 23.1567 22.0403 22.9067 21.5203 22.66C21.0003 22.4133 20.477 22.15 19.9503 21.87C19.4303 21.5833 18.9503 21.2533 18.5103 20.88C18.077 20.5 17.727 20.0533 17.4603 19.54C17.2003 19.0267 17.0703 18.42 17.0703 17.72C17.0703 16.9667 17.2736 16.3033 17.6803 15.73C18.087 15.1567 18.6603 14.71 19.4003 14.39C20.1403 14.07 21.0136 13.91 22.0203 13.91C23.0336 13.91 23.897 14.06 24.6103 14.36C25.3303 14.6533 25.8803 15.0633 26.2603 15.59C26.6403 16.1167 26.8303 16.72 26.8303 17.4C26.8303 17.94 26.707 18.48 26.4603 19.02C26.2203 19.56 25.8336 20.05 25.3003 20.49C24.7736 20.93 24.0836 21.2733 23.2303 21.52L22.0303 20.3C22.7636 20.0733 23.2903 19.7133 23.6103 19.22C23.937 18.7267 24.1036 18.1833 24.1103 17.59C24.1236 17.0767 23.947 16.65 23.5803 16.31C23.2136 15.97 22.6936 15.8 22.0203 15.8C21.4003 15.8 20.8903 15.9633 20.4903 16.29C20.097 16.61 19.9003 17.01 19.9003 17.49C19.9003 17.93 20.037 18.3233 20.3103 18.67C20.5836 19.01 20.9436 19.3233 21.3903 19.61C21.837 19.8967 22.327 20.1767 22.8603 20.45C23.3936 20.7167 23.9303 20.9933 24.4703 21.28C25.0103 21.5667 25.5036 21.8867 25.9503 22.24C26.4036 22.5867 26.767 22.9833 27.0403 23.43C27.3203 23.8767 27.4636 24.3933 27.4703 24.98C27.477 25.8867 27.2403 26.65 26.7603 27.27C26.287 27.89 25.647 28.36 24.8403 28.68C24.0336 29 23.127 29.16 22.1203 29.16Z" fill="#0B0F11"/>
</svg>
