<svg width="44" height="44" viewBox="0 0 44 44" fill="none" xmlns="http://www.w3.org/2000/svg">
<rect x="4" y="4" width="36" height="36" rx="18" fill="#E2A328"/>
<rect x="2" y="2" width="40" height="40" rx="20" stroke="#E2A328" stroke-opacity="0.2" stroke-width="4"/>
<path opacity="0.7" d="M16.3569 23.13C16.3569 21.99 16.5302 20.9333 16.8769 19.96C17.2302 18.9867 17.7035 18.1067 18.2969 17.32C18.8902 16.5267 19.5569 15.84 20.2969 15.26C21.0369 14.68 21.7969 14.2133 22.5769 13.86C23.3635 13.5067 24.1169 13.2733 24.8369 13.16L25.5669 15.01C24.6469 15.2433 23.8202 15.6167 23.0869 16.13C22.3535 16.6367 21.7302 17.23 21.2169 17.91C20.7102 18.59 20.3202 19.3133 20.0469 20.08C19.7735 20.8467 19.6302 21.6033 19.6169 22.35C19.6035 23.23 19.6735 24.0267 19.8269 24.74C19.9802 25.4467 20.2435 26.01 20.6169 26.43C20.9969 26.8433 21.5135 27.05 22.1669 27.05C22.7069 27.05 23.1535 26.9267 23.5069 26.68C23.8602 26.4267 24.1269 26.08 24.3069 25.64C24.4869 25.2 24.5769 24.7033 24.5769 24.15C24.5769 23.45 24.4869 22.8967 24.3069 22.49C24.1269 22.0767 23.8935 21.7867 23.6069 21.62C23.3202 21.4467 23.0102 21.36 22.6769 21.36C22.3169 21.36 22.0169 21.4033 21.7769 21.49C21.5435 21.5767 21.3535 21.6567 21.2069 21.73L20.5769 20.07C20.6902 19.9433 20.8802 19.8 21.1469 19.64C21.4135 19.48 21.7469 19.3433 22.1469 19.23C22.5469 19.11 23.0069 19.05 23.5269 19.05C24.3602 19.05 25.0835 19.25 25.6969 19.65C26.3102 20.0433 26.7835 20.58 27.1169 21.26C27.4502 21.94 27.6169 22.7033 27.6169 23.55C27.6169 24.2967 27.5002 25.0067 27.2669 25.68C27.0335 26.3533 26.6769 26.9533 26.1969 27.48C25.7235 28 25.1269 28.41 24.4069 28.71C23.6869 29.01 22.8402 29.16 21.8669 29.16C20.7669 29.16 19.8035 28.8933 18.9769 28.36C18.1502 27.8267 17.5069 27.1033 17.0469 26.19C16.5869 25.2767 16.3569 24.2567 16.3569 23.13Z" fill="#0B0F11"/>
</svg>
