<svg width="44" height="44" viewBox="0 0 44 44" fill="none" xmlns="http://www.w3.org/2000/svg">
<rect x="4" y="4" width="36" height="36" rx="18" fill="#E2A328"/>
<rect x="2" y="2" width="40" height="40" rx="20" stroke="#E2A328" stroke-opacity="0.2" stroke-width="4"/>
<path opacity="0.7" d="M18.8498 29.2C18.6831 29.2 18.4631 29.19 18.1898 29.17C17.9231 29.15 17.6898 29.1167 17.4898 29.07V26.91C17.6164 26.9167 17.7398 26.9233 17.8598 26.93C17.9864 26.93 18.1064 26.93 18.2198 26.93C19.3398 26.93 20.3098 26.8033 21.1298 26.55C21.9564 26.2967 22.5931 25.9367 23.0398 25.47C23.4864 25.0033 23.7098 24.45 23.7098 23.81C23.7098 23.0567 23.4898 22.5033 23.0498 22.15C22.6164 21.7967 21.9131 21.62 20.9398 21.62C20.5198 21.62 20.0664 21.6767 19.5798 21.79C19.0998 21.9033 18.6298 22.04 18.1698 22.2L17.5998 21.88L18.1898 14.14H26.4098L26.1298 16.67H20.4198L20.0798 19.77C20.4998 19.65 20.9098 19.56 21.3098 19.5C21.7098 19.44 22.0898 19.41 22.4498 19.41C23.8831 19.41 24.9698 19.7867 25.7098 20.54C26.4564 21.2867 26.8298 22.33 26.8298 23.67C26.8298 24.4567 26.6498 25.1867 26.2898 25.86C25.9298 26.5267 25.4064 27.11 24.7198 27.61C24.0331 28.11 23.1964 28.5 22.2098 28.78C21.2231 29.06 20.1031 29.2 18.8498 29.2Z" fill="#0B0F11"/>
</svg>
