<svg width="21" height="24" viewBox="0 0 21 24" fill="none" xmlns="http://www.w3.org/2000/svg">
<g opacity="0.8">
<path d="M20.25 12C20.25 12.6235 19.7484 13.125 19.125 13.125H11.625V20.625C11.625 21.2461 11.1211 21.7505 10.5 21.7505C9.87891 21.7505 9.375 21.2485 9.375 20.625V13.125H1.875C1.25391 13.125 0.75 12.6216 0.75 12.0005C0.75 11.3813 1.25391 10.875 1.875 10.875H9.375V3.37502C9.375 2.75393 9.87891 2.25049 10.5 2.25049C11.1211 2.25049 11.625 2.75393 11.625 3.37502V10.875H19.125C19.7484 10.875 20.25 11.3813 20.25 12Z" fill="#0B0F11"/>
</g>
</svg>
