<svg width="78" height="78" viewBox="0 0 78 78" fill="none" xmlns="http://www.w3.org/2000/svg">
<path d="M55.8385 35.1827C54.8367 34.1737 53.6472 33.3733 52.3381 32.8272C51.0289 32.2811 49.6257 32 48.2086 32C46.7914 32 45.3882 32.2811 44.079 32.8272C42.7699 33.3733 41.5804 34.1737 40.5786 35.1827L38.4995 37.2757L36.4204 35.1827C34.3968 33.1455 31.6522 32.0011 28.7904 32.0011C25.9286 32.0011 23.184 33.1455 21.1604 35.1827C19.1368 37.2198 18 39.9828 18 42.8637C18 45.7447 19.1368 48.5077 21.1604 50.5448L23.2395 52.6379L38.4995 68L53.7594 52.6379L55.8385 50.5448C56.8408 49.5363 57.6359 48.3388 58.1783 47.0209C58.7208 45.703 59 44.2903 59 42.8637C59 41.4371 58.7208 40.0245 58.1783 38.7066C57.6359 37.3886 56.8408 36.1912 55.8385 35.1827Z" fill="#F7E6C5"/>
<path d="M67.7299 14.9825C66.0699 13.3217 64.099 12.0043 61.9298 11.1055C59.7606 10.2066 57.4355 9.74402 55.0874 9.74402C52.7393 9.74402 50.4142 10.2066 48.245 11.1055C46.0758 12.0043 44.1049 13.3217 42.4449 14.9825L38.9999 18.4275L35.5549 14.9825C32.2019 11.6295 27.6543 9.74576 22.9124 9.74576C18.1705 9.74576 13.6229 11.6295 10.2699 14.9825C6.9169 18.3355 5.0332 22.8831 5.0332 27.625C5.0332 32.3668 6.9169 36.9145 10.2699 40.2675L13.7149 43.7125L38.9999 68.9974L64.2849 43.7125L67.7299 40.2675C69.3906 38.6075 70.708 36.6366 71.6069 34.4674C72.5057 32.2981 72.9683 29.973 72.9683 27.625C72.9683 25.2769 72.5057 22.9518 71.6069 20.7825C70.708 18.6133 69.3906 16.6424 67.7299 14.9825Z" stroke="#1F3143" stroke-width="2.5" stroke-linecap="round" stroke-linejoin="round"/>
</svg>
