<svg width="78" height="78" viewBox="0 0 78 78" fill="none" xmlns="http://www.w3.org/2000/svg">
<rect x="34" y="14" width="11" height="52" fill="#F7E6C5"/>
<path d="M22.8668 7.67001H22.8666H19.1232V2.74C19.1232 2.47743 19.0188 2.22562 18.8332 2.03996C18.6475 1.8543 18.3957 1.75 18.1332 1.75C17.8706 1.75 17.6188 1.8543 17.4331 2.03996C17.2475 2.22563 17.1432 2.47744 17.1432 2.74V7.67001H13.6931H13.6929C13.0381 7.67072 12.4103 7.93115 11.9473 8.39416C11.4843 8.85717 11.2239 9.48494 11.2231 10.1397V10.14L11.2231 40.5104L11.2231 40.5107C11.2239 41.1655 11.4843 41.7932 11.9473 42.2562C12.4103 42.7193 13.0381 42.9797 13.6929 42.9804H13.6931H17.1432V47.5692C17.1432 47.8318 17.2475 48.0836 17.4331 48.2693C17.6188 48.4549 17.8706 48.5592 18.1332 48.5592C18.3957 48.5592 18.6475 48.4549 18.8332 48.2693C19.0188 48.0836 19.1232 47.8318 19.1232 47.5692V42.9804H22.8666H22.8668C23.5216 42.9797 24.1494 42.7193 24.6124 42.2562C25.0754 41.7932 25.3358 41.1655 25.3366 40.5107V40.5104V10.14V10.1397C25.3358 9.48494 25.0754 8.85717 24.6124 8.39416C24.1494 7.93115 23.5216 7.67072 22.8668 7.67001ZM22.8662 41.0004H18.1661L18.1332 40.9935L18.1002 41.0004H13.6935C13.5635 41.0002 13.4389 40.9485 13.3469 40.8566C13.2551 40.7647 13.2034 40.6402 13.2031 40.5102V10.1402C13.2034 10.0102 13.2551 9.88569 13.3469 9.79381C13.4389 9.70189 13.5635 9.65018 13.6935 9.65001H22.8662C22.9962 9.65018 23.1208 9.70189 23.2128 9.79381C23.3047 9.88572 23.3564 10.0103 23.3566 10.1403V40.5101C23.3564 40.6401 23.3047 40.7647 23.2128 40.8566C23.1208 40.9485 22.9962 41.0002 22.8662 41.0004Z" fill="#1F3143" stroke="#1F3143" stroke-width="0.5"/>
<path d="M64.3068 15.1466H64.3065H60.5631V11.62C60.5631 11.3574 60.4588 11.1056 60.2731 10.92C60.0875 10.7343 59.8357 10.63 59.5731 10.63C59.3105 10.63 59.0587 10.7343 58.8731 10.92C58.6874 11.1056 58.5831 11.3574 58.5831 11.62V15.1466H55.1331H55.1328C54.478 15.1473 53.8503 15.4078 53.3872 15.8708C52.9242 16.3338 52.6638 16.9615 52.6631 17.6163V17.6166L52.6631 40.0826L52.6631 40.0829C52.6638 40.7376 52.9242 41.3654 53.3872 41.8284C53.8503 42.2914 54.478 42.5519 55.1328 42.5526H55.1331H58.5831V45.8191C58.5831 46.0816 58.6874 46.3334 58.8731 46.5191C59.0587 46.7048 59.3105 46.8091 59.5731 46.8091C59.8357 46.8091 60.0875 46.7048 60.2731 46.5191C60.4588 46.3334 60.5631 46.0816 60.5631 45.8191V42.5526H64.3065H64.3068C64.9616 42.5519 65.5893 42.2914 66.0523 41.8284C66.5154 41.3654 66.7758 40.7376 66.7765 40.0829V40.0826V17.6166V17.6163C66.7758 16.9615 66.5154 16.3338 66.0523 15.8708C65.5893 15.4078 64.9616 15.1473 64.3068 15.1466ZM64.7965 40.0823C64.7963 40.2122 64.7446 40.3369 64.6527 40.4288C64.5608 40.5207 64.4362 40.5724 64.3062 40.5726H55.1334C55.0034 40.5724 54.8788 40.5207 54.7869 40.4288C54.695 40.3369 54.6433 40.2123 54.6431 40.0824V17.6168C54.6433 17.4868 54.695 17.3623 54.7869 17.2704C54.8788 17.1785 55.0034 17.1268 55.1334 17.1266H64.3062C64.4362 17.1268 64.5608 17.1785 64.6527 17.2704C64.7446 17.3623 64.7963 17.487 64.7965 17.6169V40.0823Z" fill="#1F3143" stroke="#1F3143" stroke-width="0.5"/>
<path d="M44.1743 12.6115H44.174H40.1293V4.21998C40.1293 3.95742 40.025 3.70561 39.8393 3.51994L39.6626 3.69672L39.8393 3.51994C39.6537 3.33428 39.4019 3.22998 39.1393 3.22998C38.8767 3.22998 38.6249 3.33428 38.4393 3.51994C38.2536 3.70561 38.1493 3.95742 38.1493 4.21998V12.6115H34.4131H34.4128C33.7581 12.6122 33.1303 12.8727 32.6673 13.3357C32.2043 13.7987 31.9438 14.4265 31.9431 15.0812V15.0815L31.9431 64.9391L31.9431 64.9394C31.9438 65.5941 32.2043 66.2219 32.6673 66.6849C33.1303 67.1479 33.7581 67.4084 34.4128 67.4091H34.4131H38.1493V75.2601C38.1493 75.5226 38.2536 75.7744 38.4393 75.9601L38.616 75.7833L38.4393 75.9601C38.6249 76.1458 38.8767 76.2501 39.1393 76.2501C39.4019 76.2501 39.6537 76.1458 39.8393 75.9601L39.6626 75.7833L39.8393 75.9601C40.025 75.7744 40.1293 75.5226 40.1293 75.2601V67.4091H44.174H44.1743C44.8291 67.4084 45.4569 67.1479 45.9199 66.6849C46.3829 66.2219 46.6433 65.5941 46.644 64.9394V64.9391V15.0815V15.0812C46.6433 14.4265 46.3829 13.7987 45.9199 13.3357C45.4569 12.8727 44.8291 12.6122 44.1743 12.6115ZM44.1737 65.4291H39.1721L39.1393 65.4223L39.1065 65.4291H34.4134C34.2835 65.4289 34.1588 65.3772 34.0669 65.2853C33.975 65.1934 33.9233 65.0689 33.9231 64.9389V15.0817C33.9233 14.9517 33.975 14.8272 34.0669 14.7353C34.1588 14.6434 34.2835 14.5917 34.4134 14.5915H44.1737C44.3037 14.5917 44.4283 14.6434 44.5202 14.7353C44.6122 14.8272 44.6639 14.9519 44.664 15.0818V64.9388C44.6639 65.0687 44.6122 65.1934 44.5202 65.2853C44.4283 65.3772 44.3037 65.4289 44.1737 65.4291Z" fill="#1F3143" stroke="#1F3143" stroke-width="0.5"/>
</svg>
