<svg width="78" height="78" viewBox="0 0 78 78" fill="none" xmlns="http://www.w3.org/2000/svg">
<path d="M10.8921 64.6693C10.651 64.6695 10.4152 64.5982 10.2146 64.4643C10.0141 64.3305 9.85773 64.1402 9.76535 63.9175C9.67298 63.6948 9.64874 63.4496 9.69571 63.2132C9.74267 62.9767 9.85873 62.7594 10.0292 62.5889L19.9535 52.6658C20.7437 51.8713 21.6837 51.2414 22.719 50.8125C23.7544 50.3837 24.8645 50.1644 25.9851 50.1674H47.0865C48.3238 50.1674 49.5105 50.6589 50.3854 51.5338C51.2604 52.4088 51.7519 53.5954 51.7519 54.8328C51.7519 56.0701 51.2604 57.2568 50.3854 58.1317C49.5105 59.0066 48.3238 59.4981 47.0865 59.4981H33.2976C32.9743 59.4981 32.6643 59.3697 32.4358 59.1412C32.2072 58.9126 32.0788 58.6026 32.0788 58.2794C32.0788 57.9562 32.2072 57.6462 32.4358 57.4176C32.6643 57.189 32.9743 57.0606 33.2976 57.0606H47.0865C47.6774 57.0606 48.244 56.8259 48.6619 56.4081C49.0797 55.9903 49.3144 55.4236 49.3144 54.8328C49.3144 54.2419 49.0797 53.6752 48.6619 53.2574C48.244 52.8396 47.6774 52.6049 47.0865 52.6049H25.9851C24.3701 52.6093 22.822 53.2504 21.6768 54.3891L11.7537 64.3122C11.5252 64.5408 11.2153 64.6692 10.8921 64.6693Z" fill="#1F3143"/>
<path d="M22.0947 75.8721C21.8537 75.872 21.6181 75.8005 21.4177 75.6666C21.2174 75.5327 21.0612 75.3424 20.969 75.1197C20.8768 74.897 20.8526 74.652 20.8996 74.4156C20.9466 74.1792 21.0627 73.9621 21.2331 73.7917L24.2616 70.7631C25.0519 69.9685 25.9919 69.3386 27.0272 68.9098C28.0625 68.4809 29.1726 68.2616 30.2932 68.2646H43.1949C43.9958 68.2669 44.7892 68.1102 45.5291 67.8037C46.2691 67.4972 46.9409 67.047 47.5056 66.4792L66.0989 47.8859C66.5561 47.4287 66.813 46.8086 66.813 46.162C66.813 45.5154 66.5561 44.8953 66.0989 44.4381C65.6417 43.9809 65.0216 43.724 64.375 43.724C63.7284 43.724 63.1083 43.9809 62.6511 44.4381L51.3959 55.6969C51.166 55.9189 50.8582 56.0417 50.5386 56.039C50.2191 56.0362 49.9134 55.908 49.6874 55.682C49.4615 55.4561 49.3333 55.1504 49.3305 54.8308C49.3277 54.5113 49.4506 54.2034 49.6726 53.9736L60.9277 42.7172C61.842 41.8029 63.082 41.2893 64.375 41.2893C65.6679 41.2893 66.9079 41.8029 67.8222 42.7172C68.7365 43.6315 69.2501 44.8715 69.2501 46.1644C69.2501 47.4574 68.7365 48.6974 67.8222 49.6117L49.229 68.2025C48.4386 68.9976 47.4983 69.628 46.4625 70.0571C45.4267 70.4862 44.3161 70.7054 43.1949 70.7021H30.2932C28.6783 70.7065 27.1302 71.3477 25.985 72.4864L22.9564 75.515C22.8435 75.6285 22.7092 75.7186 22.5613 75.7799C22.4134 75.8412 22.2548 75.8725 22.0947 75.8721Z" fill="#1F3143"/>
<circle cx="44.5" cy="26.5" r="16.5" fill="#F7E6C5"/>
<path d="M42.6563 43.875C38.5585 43.875 34.5527 42.6599 31.1455 40.3833C27.7384 38.1067 25.0828 34.8708 23.5146 31.085C21.9465 27.2991 21.5362 23.1333 22.3356 19.1142C23.1351 15.0952 25.1083 11.4035 28.0059 8.50589C30.9035 5.60832 34.5952 3.63505 38.6142 2.83561C42.6333 2.03618 46.7991 2.44648 50.585 4.01463C54.3708 5.58278 57.6067 8.23836 59.8833 11.6455C62.1599 15.0527 63.375 19.0585 63.375 23.1563C63.3689 28.6493 61.1841 33.9157 57.2999 37.7999C53.4157 41.6841 48.1493 43.8689 42.6563 43.875ZM42.6563 4.87501C39.0406 4.87501 35.5061 5.94719 32.4997 7.95596C29.4934 9.96473 27.1503 12.8199 25.7666 16.1603C24.3829 19.5008 24.0209 23.1765 24.7263 26.7228C25.4317 30.269 27.1728 33.5264 29.7295 36.0831C32.2861 38.6397 35.5436 40.3809 39.0898 41.0862C42.636 41.7916 46.3117 41.4296 49.6522 40.0459C52.9927 38.6623 55.8478 36.3191 57.8566 33.3128C59.8653 30.3064 60.9375 26.7719 60.9375 23.1563C60.932 18.3095 59.0042 13.6627 55.577 10.2355C52.1498 6.80831 47.5031 4.88049 42.6563 4.87501Z" fill="#1F3143"/>
</svg>
