<svg width="78" height="78" viewBox="0 0 78 78" fill="none" xmlns="http://www.w3.org/2000/svg">
<rect x="56" y="48" width="17" height="25" fill="#F7E6C5"/>
<path d="M44.1821 25.6582L47.4316 35.5489C48.6142 38.9605 52.2199 40.8907 55.7147 39.9827L58.0357 39.3798L52.1712 22.4608" stroke="#1F3143" stroke-width="2.5" stroke-miterlimit="10" stroke-linecap="round" stroke-linejoin="round"/>
<path d="M58.4959 16.4139L60.953 17.6061C64.2016 19.1823 68.116 17.9975 69.9451 14.8842L71.1599 12.8166L55.0496 5L35.6667 7.97089C33.9996 8.22642 32.3793 8.72607 30.858 9.45366L6.87196 22.4811L5.07031 23.2197" stroke="#1F3143" stroke-width="2.5" stroke-miterlimit="10" stroke-linecap="round" stroke-linejoin="round"/>
<path d="M5.07031 42.7689H11.3214L13.0197 45.8449C14.5922 48.6929 16.9015 51.0656 19.706 52.7145C21.9006 54.0047 24.3508 54.7991 26.885 55.0423L30.7055 55.4086C33.1238 55.6405 35.4489 56.4597 37.4784 57.7951L45.3924 63.0024L46.2621 61.716C48.7233 58.0755 47.944 53.1507 44.479 50.4478L33.1397 41.6759L32.179 30.3893L52.1712 22.4606L61.8818 30.8998C64.7441 33.1008 68.8174 32.7326 71.2387 30.054L72.7468 28.4834L54.1686 12.9025L34.0232 17.615" stroke="#1F3143" stroke-width="2.5" stroke-miterlimit="10" stroke-linecap="round" stroke-linejoin="round"/>
<path d="M72.9298 47.6329H56.0354V56.1056H72.9298V47.6329Z" stroke="#1F3143" stroke-width="2.5" stroke-miterlimit="10" stroke-linecap="round" stroke-linejoin="round"/>
<path d="M72.9298 56.0802V64.5529H56.0354V56.0802" stroke="#1F3143" stroke-width="2.5" stroke-miterlimit="10" stroke-linecap="round" stroke-linejoin="round"/>
<path d="M72.9298 64.5273V73H56.0354V64.5273" stroke="#1F3143" stroke-width="2.5" stroke-miterlimit="10" stroke-linecap="round" stroke-linejoin="round"/>
</svg>
