<svg width="78" height="78" viewBox="0 0 78 78" fill="none" xmlns="http://www.w3.org/2000/svg">
<circle cx="39" cy="17" r="6" fill="#F7E6C5"/>
<path d="M48.3092 67.4707C52.0875 67.4707 55.1505 64.4077 55.1505 60.6293C55.1505 56.851 52.0875 53.788 48.3092 53.788C44.5308 53.788 41.4678 56.851 41.4678 60.6293C41.4678 64.4077 44.5308 67.4707 48.3092 67.4707Z" stroke="#1F3143" stroke-width="2.5" stroke-miterlimit="10" stroke-linecap="round" stroke-linejoin="round"/>
<path d="M66.9271 67.4707C70.7055 67.4707 73.7685 64.4077 73.7685 60.6293C73.7685 56.851 70.7055 53.788 66.9271 53.788C63.1487 53.788 60.0857 56.851 60.0857 60.6293C60.0857 64.4077 63.1487 67.4707 66.9271 67.4707Z" stroke="#1F3143" stroke-width="2.5" stroke-miterlimit="10" stroke-linecap="round" stroke-linejoin="round"/>
<path d="M57.6185 45.8476C61.3969 45.8476 64.4599 42.7846 64.4599 39.0062C64.4599 35.2278 61.3969 32.1648 57.6185 32.1648C53.8401 32.1648 50.7771 35.2278 50.7771 39.0062C50.7771 42.7846 53.8401 45.8476 57.6185 45.8476Z" stroke="#1F3143" stroke-width="2.5" stroke-miterlimit="10" stroke-linecap="round" stroke-linejoin="round"/>
<path d="M11.0728 67.4746C14.8512 67.4746 17.9142 64.4116 17.9142 60.6333C17.9142 56.8549 14.8512 53.7919 11.0728 53.7919C7.29444 53.7919 4.23145 56.8549 4.23145 60.6333C4.23145 64.4116 7.29444 67.4746 11.0728 67.4746Z" stroke="#1F3143" stroke-width="2.5" stroke-miterlimit="10" stroke-linecap="round" stroke-linejoin="round"/>
<path d="M29.6907 67.4746C33.4691 67.4746 36.5321 64.4116 36.5321 60.6333C36.5321 56.8549 33.4691 53.7919 29.6907 53.7919C25.9124 53.7919 22.8494 56.8549 22.8494 60.6333C22.8494 64.4116 25.9124 67.4746 29.6907 67.4746Z" stroke="#1F3143" stroke-width="2.5" stroke-miterlimit="10" stroke-linecap="round" stroke-linejoin="round"/>
<path d="M20.3822 45.8515C24.1605 45.8515 27.2235 42.7885 27.2235 39.0101C27.2235 35.2317 24.1605 32.1687 20.3822 32.1687C16.6038 32.1687 13.5408 35.2317 13.5408 39.0101C13.5408 42.7885 16.6038 45.8515 20.3822 45.8515Z" stroke="#1F3143" stroke-width="2.5" stroke-miterlimit="10" stroke-linecap="round" stroke-linejoin="round"/>
<path d="M39.1302 24.2541C42.9081 24.2541 45.9708 21.1914 45.9708 17.4135C45.9708 13.6355 42.9081 10.5729 39.1302 10.5729C35.3522 10.5729 32.2896 13.6355 32.2896 17.4135C32.2896 21.1914 35.3522 24.2541 39.1302 24.2541Z" stroke="#1F3143" stroke-width="2.5" stroke-miterlimit="10" stroke-linecap="round" stroke-linejoin="round"/>
<path d="M53.1725 33.8138L43.5762 22.6044" stroke="#1F3143" stroke-width="2.5" stroke-miterlimit="10" stroke-linecap="round" stroke-linejoin="round"/>
<path d="M34.6492 22.5747L24.8625 33.8488" stroke="#1F3143" stroke-width="2.5" stroke-miterlimit="10" stroke-linecap="round" stroke-linejoin="round"/>
<path d="M17.677 45.2938L13.7786 54.3496" stroke="#1F3143" stroke-width="2.5" stroke-miterlimit="10" stroke-linecap="round" stroke-linejoin="round"/>
<path d="M26.9856 54.3503L23.0872 45.293" stroke="#1F3143" stroke-width="2.5" stroke-miterlimit="10" stroke-linecap="round" stroke-linejoin="round"/>
<path d="M54.9119 45.2891L51.0134 54.3464" stroke="#1F3143" stroke-width="2.5" stroke-miterlimit="10" stroke-linecap="round" stroke-linejoin="round"/>
<path d="M64.2219 54.3464L60.3235 45.2891" stroke="#1F3143" stroke-width="2.5" stroke-miterlimit="10" stroke-linecap="round" stroke-linejoin="round"/>
</svg>
