<svg width="32" height="32" viewBox="0 0 32 32" fill="none" xmlns="http://www.w3.org/2000/svg">
<rect x="13.9487" y="5.74365" width="4.51282" height="21.3333" fill="#F7E6C5"/>
<path d="M9.38143 2.99928H9.38116H7.99284V1.12415C7.99284 0.977323 7.93451 0.836516 7.8307 0.732699C7.72688 0.628882 7.58607 0.570557 7.43925 0.570557C7.29243 0.570557 7.15162 0.628881 7.0478 0.732699C6.94398 0.836518 6.88566 0.977326 6.88566 1.12415V2.99928L5.61771 2.99928L5.61744 2.99928C5.30976 2.99961 5.01478 3.12199 4.79721 3.33955C4.57965 3.55711 4.45728 3.85209 4.45694 4.15977V4.16005L4.45694 16.6197L4.45694 16.62C4.45728 16.9276 4.57965 17.2226 4.79721 17.4402C5.01478 17.6578 5.30976 17.7801 5.61744 17.7805H5.61771H6.88566V19.5156C6.88566 19.6625 6.94398 19.8033 7.0478 19.9071C7.15162 20.0109 7.29243 20.0692 7.43925 20.0692C7.58607 20.0692 7.72688 20.0109 7.8307 19.9071C7.93451 19.8033 7.99284 19.6625 7.99284 19.5156V17.7805H9.38116H9.38143C9.68911 17.7801 9.98409 17.6578 10.2017 17.4402C10.4192 17.2226 10.5416 16.9276 10.5419 16.62V16.6197V4.16005V4.15977C10.5416 3.85209 10.4192 3.55711 10.2017 3.33955C9.98409 3.12199 9.68911 2.99961 9.38143 2.99928ZM7.46792 16.6733L7.43925 16.6673L7.41058 16.6733L5.61803 16.6733C5.61795 16.6733 5.61786 16.6733 5.61778 16.6733C5.60358 16.6732 5.58998 16.6675 5.57993 16.6575C5.56985 16.6474 5.56417 16.6337 5.56412 16.6195V4.16027C5.56417 4.14601 5.56985 4.13235 5.57993 4.12227C5.59001 4.11219 5.60367 4.1065 5.61793 4.10646C5.61796 4.10646 5.618 4.10646 5.61803 4.10646H9.38083C9.38087 4.10646 9.3809 4.10646 9.38094 4.10646C9.39519 4.1065 9.40885 4.11219 9.41894 4.12227C9.42904 4.13237 9.43473 4.14608 9.43475 4.16037V16.6194C9.43473 16.6337 9.42904 16.6474 9.41894 16.6575C9.40889 16.6675 9.39529 16.6732 9.38109 16.6733C9.381 16.6733 9.38092 16.6733 9.38083 16.6733L7.46792 16.6733Z" fill="#1F3143" stroke="#1F3143" stroke-width="0.5"/>
<path d="M26.3825 6.06659H26.3822H24.9939V4.76721C24.9939 4.62039 24.9356 4.47958 24.8317 4.37577C24.7279 4.27195 24.5871 4.21362 24.4403 4.21362C24.2935 4.21362 24.1527 4.27195 24.0488 4.37577C23.945 4.47958 23.8867 4.62039 23.8867 4.76721V6.06659L22.6187 6.06659L22.6185 6.06659C22.3108 6.06693 22.0158 6.1893 21.7983 6.40686C21.5807 6.62443 21.4583 6.91941 21.458 7.22709V7.22736L21.458 16.4442L21.458 16.4444C21.4583 16.7521 21.5807 17.0471 21.7983 17.2647C22.0158 17.4822 22.3108 17.6046 22.6185 17.6049H22.6187H23.8867V18.7976C23.8867 18.9444 23.945 19.0852 24.0488 19.189C24.1527 19.2929 24.2935 19.3512 24.4403 19.3512C24.5871 19.3512 24.7279 19.2929 24.8317 19.189C24.9356 19.0852 24.9939 18.9444 24.9939 18.7976V17.6049H26.3822L26.3825 17.6049C26.6901 17.6046 26.9851 17.4822 27.2027 17.2647C27.4203 17.0471 27.5426 16.7521 27.543 16.4444V16.4442L27.543 7.22736L27.543 7.22709C27.5426 6.91941 27.4203 6.62443 27.2027 6.40686C26.9851 6.1893 26.6901 6.06693 26.3825 6.06659ZM26.4358 16.444C26.4357 16.4582 26.43 16.4719 26.42 16.4819C26.4099 16.4921 26.3962 16.4977 26.3819 16.4978H22.6191C22.6048 16.4977 22.5911 16.4921 22.581 16.4819C22.5709 16.4719 22.5652 16.4582 22.5652 16.4439V7.22758C22.5652 7.21333 22.5709 7.19967 22.581 7.18958C22.5911 7.17948 22.6048 7.17379 22.6191 7.17377H26.3819C26.3962 7.17379 26.4099 7.17948 26.42 7.18958C26.43 7.19965 26.4357 7.21329 26.4358 7.22752C26.4358 7.22757 26.4358 7.22763 26.4358 7.22769V16.4438C26.4358 16.4439 26.4358 16.444 26.4358 16.444Z" fill="#1F3143" stroke="#1F3143" stroke-width="0.5"/>
<path d="M18.123 5.02657H18.1227H16.6108V1.73132C16.6108 1.5845 16.5524 1.4437 16.4486 1.33988C16.3448 1.23606 16.204 1.17773 16.0572 1.17773C15.9104 1.17773 15.7695 1.23606 15.6657 1.33988C15.5619 1.4437 15.5036 1.5845 15.5036 1.73132V5.02657L14.1182 5.02657L14.118 5.02657C13.8103 5.02691 13.5153 5.14928 13.2977 5.36684C13.0802 5.58441 12.9578 5.87939 12.9575 6.18707V6.18734L12.9575 26.6417L12.9575 26.642C12.9578 26.9497 13.0802 27.2447 13.2977 27.4622C13.5153 27.6798 13.8103 27.8022 14.118 27.8025H14.1182H15.5036V30.876C15.5036 31.0228 15.5619 31.1636 15.6657 31.2674C15.7695 31.3712 15.9104 31.4296 16.0572 31.4296C16.204 31.4296 16.3448 31.3712 16.4486 31.2674C16.5524 31.1636 16.6108 31.0228 16.6108 30.876V27.8025H18.1227H18.123C18.4307 27.8022 18.7256 27.6798 18.9432 27.4622C19.1608 27.2447 19.2831 26.9497 19.2835 26.642V26.6417L19.2835 6.18734L19.2835 6.18707C19.2831 5.87939 19.1608 5.58441 18.9432 5.36684C18.7256 5.14928 18.4307 5.02691 18.123 5.02657ZM16.0858 26.6953L16.0572 26.6894L16.0286 26.6953H14.1186C14.1043 26.6953 14.0906 26.6896 14.0804 26.6795C14.0704 26.6694 14.0647 26.6558 14.0646 26.6415V6.18756C14.0647 6.1733 14.0704 6.15964 14.0804 6.14956C14.0905 6.13949 14.1042 6.13381 14.1184 6.13375C14.1184 6.13375 14.1185 6.13375 14.1186 6.13375H18.1224C18.1224 6.13375 18.1225 6.13375 18.1226 6.13375C18.1368 6.13381 18.1504 6.13949 18.1605 6.14956C18.1706 6.15963 18.1762 6.17327 18.1763 6.1875C18.1763 6.18755 18.1763 6.18761 18.1763 6.18766V26.6414C18.1763 26.6415 18.1763 26.6415 18.1763 26.6416C18.1762 26.6558 18.1706 26.6694 18.1605 26.6795C18.1504 26.6896 18.1367 26.6953 18.1224 26.6953H16.0858Z" fill="#1F3143" stroke="#1F3143" stroke-width="0.5"/>
</svg>
