<svg width="56" height="40" viewBox="0 0 56 40" fill="none" xmlns="http://www.w3.org/2000/svg">
<g clip-path="url(#clip0_215_201)">
<path fill-rule="evenodd" clip-rule="evenodd" d="M0 0H55.5556V40H0V0Z" fill="url(#paint0_linear_215_201)"/>
<path fill-rule="evenodd" clip-rule="evenodd" d="M0 0H55.5556V2.66667H0V0ZM0 5.33333H55.5556V8H0V5.33333ZM0 10.6667H55.5556V13.3333H0V10.6667ZM0 16H55.5556V18.6667H0V16ZM0 21.3333H55.5556V24H0V21.3333ZM0 26.6667H55.5556V29.3333H0V26.6667ZM0 32H55.5556V34.6667H0V32ZM0 37.3333H55.5556V40H0V37.3333Z" fill="url(#paint1_linear_215_201)"/>
<path fill-rule="evenodd" clip-rule="evenodd" d="M0 0H23.8095V18.6667H0V0Z" fill="url(#paint2_linear_215_201)"/>
<path fill-rule="evenodd" clip-rule="evenodd" d="M3.96826 5.33335C3.61744 5.33335 3.281 5.19288 3.03293 4.94283C2.78487 4.69278 2.64551 4.35364 2.64551 4.00002C2.64551 3.6464 2.78487 3.30726 3.03293 3.05721C3.281 2.80716 3.61744 2.66669 3.96826 2.66669C4.31907 2.66669 4.65552 2.80716 4.90359 3.05721C5.15165 3.30726 5.29101 3.6464 5.29101 4.00002C5.29101 4.35364 5.15165 4.69278 4.90359 4.94283C4.65552 5.19288 4.31907 5.33335 3.96826 5.33335ZM9.25926 5.33335C8.90845 5.33335 8.572 5.19288 8.32394 4.94283C8.07587 4.69278 7.93651 4.35364 7.93651 4.00002C7.93651 3.6464 8.07587 3.30726 8.32394 3.05721C8.572 2.80716 8.90845 2.66669 9.25926 2.66669C9.61008 2.66669 9.94653 2.80716 10.1946 3.05721C10.4427 3.30726 10.582 3.6464 10.582 4.00002C10.582 4.35364 10.4427 4.69278 10.1946 4.94283C9.94653 5.19288 9.61008 5.33335 9.25926 5.33335ZM14.5503 5.33335C14.1995 5.33335 13.863 5.19288 13.6149 4.94283C13.3669 4.69278 13.2275 4.35364 13.2275 4.00002C13.2275 3.6464 13.3669 3.30726 13.6149 3.05721C13.863 2.80716 14.1995 2.66669 14.5503 2.66669C14.9011 2.66669 15.2375 2.80716 15.4856 3.05721C15.7337 3.30726 15.873 3.6464 15.873 4.00002C15.873 4.35364 15.7337 4.69278 15.4856 4.94283C15.2375 5.19288 14.9011 5.33335 14.5503 5.33335ZM19.8413 5.33335C19.4905 5.33335 19.154 5.19288 18.9059 4.94283C18.6579 4.69278 18.5185 4.35364 18.5185 4.00002C18.5185 3.6464 18.6579 3.30726 18.9059 3.05721C19.154 2.80716 19.4905 2.66669 19.8413 2.66669C20.1921 2.66669 20.5285 2.80716 20.7766 3.05721C21.0247 3.30726 21.164 3.6464 21.164 4.00002C21.164 4.35364 21.0247 4.69278 20.7766 4.94283C20.5285 5.19288 20.1921 5.33335 19.8413 5.33335ZM6.61376 8.00002C6.26295 8.00002 5.9265 7.85954 5.67844 7.6095C5.43037 7.35945 5.29101 7.02031 5.29101 6.66669C5.29101 6.31306 5.43037 5.97393 5.67844 5.72388C5.9265 5.47383 6.26295 5.33335 6.61376 5.33335C6.96458 5.33335 7.30102 5.47383 7.54909 5.72388C7.79715 5.97393 7.93651 6.31306 7.93651 6.66669C7.93651 7.02031 7.79715 7.35945 7.54909 7.6095C7.30102 7.85954 6.96458 8.00002 6.61376 8.00002ZM11.9048 8.00002C11.554 8.00002 11.2175 7.85954 10.9694 7.6095C10.7214 7.35945 10.582 7.02031 10.582 6.66669C10.582 6.31306 10.7214 5.97393 10.9694 5.72388C11.2175 5.47383 11.554 5.33335 11.9048 5.33335C12.2556 5.33335 12.592 5.47383 12.8401 5.72388C13.0882 5.97393 13.2275 6.31306 13.2275 6.66669C13.2275 7.02031 13.0882 7.35945 12.8401 7.6095C12.592 7.85954 12.2556 8.00002 11.9048 8.00002ZM17.1958 8.00002C16.845 8.00002 16.5085 7.85954 16.2604 7.6095C16.0124 7.35945 15.873 7.02031 15.873 6.66669C15.873 6.31306 16.0124 5.97393 16.2604 5.72388C16.5085 5.47383 16.845 5.33335 17.1958 5.33335C17.5466 5.33335 17.883 5.47383 18.1311 5.72388C18.3792 5.97393 18.5185 6.31306 18.5185 6.66669C18.5185 7.02031 18.3792 7.35945 18.1311 7.6095C17.883 7.85954 17.5466 8.00002 17.1958 8.00002ZM19.8413 10.6667C19.4905 10.6667 19.154 10.5262 18.9059 10.2762C18.6579 10.0261 18.5185 9.68698 18.5185 9.33335C18.5185 8.97973 18.6579 8.64059 18.9059 8.39054C19.154 8.1405 19.4905 8.00002 19.8413 8.00002C20.1921 8.00002 20.5285 8.1405 20.7766 8.39054C21.0247 8.64059 21.164 8.97973 21.164 9.33335C21.164 9.68698 21.0247 10.0261 20.7766 10.2762C20.5285 10.5262 20.1921 10.6667 19.8413 10.6667ZM14.5503 10.6667C14.1995 10.6667 13.863 10.5262 13.6149 10.2762C13.3669 10.0261 13.2275 9.68698 13.2275 9.33335C13.2275 8.97973 13.3669 8.64059 13.6149 8.39054C13.863 8.1405 14.1995 8.00002 14.5503 8.00002C14.9011 8.00002 15.2375 8.1405 15.4856 8.39054C15.7337 8.64059 15.873 8.97973 15.873 9.33335C15.873 9.68698 15.7337 10.0261 15.4856 10.2762C15.2375 10.5262 14.9011 10.6667 14.5503 10.6667ZM9.25926 10.6667C8.90845 10.6667 8.572 10.5262 8.32394 10.2762C8.07587 10.0261 7.93651 9.68698 7.93651 9.33335C7.93651 8.97973 8.07587 8.64059 8.32394 8.39054C8.572 8.1405 8.90845 8.00002 9.25926 8.00002C9.61008 8.00002 9.94653 8.1405 10.1946 8.39054C10.4427 8.64059 10.582 8.97973 10.582 9.33335C10.582 9.68698 10.4427 10.0261 10.1946 10.2762C9.94653 10.5262 9.61008 10.6667 9.25926 10.6667ZM3.96826 10.6667C3.61744 10.6667 3.281 10.5262 3.03293 10.2762C2.78487 10.0261 2.64551 9.68698 2.64551 9.33335C2.64551 8.97973 2.78487 8.64059 3.03293 8.39054C3.281 8.1405 3.61744 8.00002 3.96826 8.00002C4.31907 8.00002 4.65552 8.1405 4.90359 8.39054C5.15165 8.64059 5.29101 8.97973 5.29101 9.33335C5.29101 9.68698 5.15165 10.0261 4.90359 10.2762C4.65552 10.5262 4.31907 10.6667 3.96826 10.6667ZM6.61376 13.3334C6.26295 13.3334 5.9265 13.1929 5.67844 12.9428C5.43037 12.6928 5.29101 12.3536 5.29101 12C5.29101 11.6464 5.43037 11.3073 5.67844 11.0572C5.9265 10.8072 6.26295 10.6667 6.61376 10.6667C6.96458 10.6667 7.30102 10.8072 7.54909 11.0572C7.79715 11.3073 7.93651 11.6464 7.93651 12C7.93651 12.3536 7.79715 12.6928 7.54909 12.9428C7.30102 13.1929 6.96458 13.3334 6.61376 13.3334ZM11.9048 13.3334C11.554 13.3334 11.2175 13.1929 10.9694 12.9428C10.7214 12.6928 10.582 12.3536 10.582 12C10.582 11.6464 10.7214 11.3073 10.9694 11.0572C11.2175 10.8072 11.554 10.6667 11.9048 10.6667C12.2556 10.6667 12.592 10.8072 12.8401 11.0572C13.0882 11.3073 13.2275 11.6464 13.2275 12C13.2275 12.3536 13.0882 12.6928 12.8401 12.9428C12.592 13.1929 12.2556 13.3334 11.9048 13.3334ZM17.1958 13.3334C16.845 13.3334 16.5085 13.1929 16.2604 12.9428C16.0124 12.6928 15.873 12.3536 15.873 12C15.873 11.6464 16.0124 11.3073 16.2604 11.0572C16.5085 10.8072 16.845 10.6667 17.1958 10.6667C17.5466 10.6667 17.883 10.8072 18.1311 11.0572C18.3792 11.3073 18.5185 11.6464 18.5185 12C18.5185 12.3536 18.3792 12.6928 18.1311 12.9428C17.883 13.1929 17.5466 13.3334 17.1958 13.3334ZM19.8413 16C19.4905 16 19.154 15.8595 18.9059 15.6095C18.6579 15.3594 18.5185 15.0203 18.5185 14.6667C18.5185 14.3131 18.6579 13.9739 18.9059 13.7239C19.154 13.4738 19.4905 13.3334 19.8413 13.3334C20.1921 13.3334 20.5285 13.4738 20.7766 13.7239C21.0247 13.9739 21.164 14.3131 21.164 14.6667C21.164 15.0203 21.0247 15.3594 20.7766 15.6095C20.5285 15.8595 20.1921 16 19.8413 16ZM14.5503 16C14.1995 16 13.863 15.8595 13.6149 15.6095C13.3669 15.3594 13.2275 15.0203 13.2275 14.6667C13.2275 14.3131 13.3669 13.9739 13.6149 13.7239C13.863 13.4738 14.1995 13.3334 14.5503 13.3334C14.9011 13.3334 15.2375 13.4738 15.4856 13.7239C15.7337 13.9739 15.873 14.3131 15.873 14.6667C15.873 15.0203 15.7337 15.3594 15.4856 15.6095C15.2375 15.8595 14.9011 16 14.5503 16ZM9.25926 16C8.90845 16 8.572 15.8595 8.32394 15.6095C8.07587 15.3594 7.93651 15.0203 7.93651 14.6667C7.93651 14.3131 8.07587 13.9739 8.32394 13.7239C8.572 13.4738 8.90845 13.3334 9.25926 13.3334C9.61008 13.3334 9.94653 13.4738 10.1946 13.7239C10.4427 13.9739 10.582 14.3131 10.582 14.6667C10.582 15.0203 10.4427 15.3594 10.1946 15.6095C9.94653 15.8595 9.61008 16 9.25926 16ZM3.96826 16C3.61744 16 3.281 15.8595 3.03293 15.6095C2.78487 15.3594 2.64551 15.0203 2.64551 14.6667C2.64551 14.3131 2.78487 13.9739 3.03293 13.7239C3.281 13.4738 3.61744 13.3334 3.96826 13.3334C4.31907 13.3334 4.65552 13.4738 4.90359 13.7239C5.15165 13.9739 5.29101 14.3131 5.29101 14.6667C5.29101 15.0203 5.15165 15.3594 4.90359 15.6095C4.65552 15.8595 4.31907 16 3.96826 16Z" fill="url(#paint3_linear_215_201)"/>
</g>
<defs>
<linearGradient id="paint0_linear_215_201" x1="2777.78" y1="0" x2="2777.78" y2="4000" gradientUnits="userSpaceOnUse">
<stop stop-color="white"/>
<stop offset="1" stop-color="#F0F0F0"/>
</linearGradient>
<linearGradient id="paint1_linear_215_201" x1="2777.78" y1="0" x2="2777.78" y2="4000" gradientUnits="userSpaceOnUse">
<stop stop-color="#D02F44"/>
<stop offset="1" stop-color="#B12537"/>
</linearGradient>
<linearGradient id="paint2_linear_215_201" x1="1190.48" y1="0" x2="1190.48" y2="1866.67" gradientUnits="userSpaceOnUse">
<stop stop-color="#46467F"/>
<stop offset="1" stop-color="#3C3C6D"/>
</linearGradient>
<linearGradient id="paint3_linear_215_201" x1="928.571" y1="2.66669" x2="928.571" y2="1336" gradientUnits="userSpaceOnUse">
<stop stop-color="white"/>
<stop offset="1" stop-color="#F0F0F0"/>
</linearGradient>
<clipPath id="clip0_215_201">
<rect width="55.5556" height="40" fill="white"/>
</clipPath>
</defs>
</svg>
