<svg width="80" height="80" viewBox="0 0 80 80" fill="none" xmlns="http://www.w3.org/2000/svg">
<path d="M23.875 38H40.375H57.875L63.875 42L64.875 48L65.375 66L62.375 71.5L56.375 74.5H32.875L20.375 73.5L16.875 71.5L14.875 66.5L14.375 48L15.375 44L18.375 40L23.875 38Z" fill="#FEF1D8"/>
<path d="M49.685 35.8655L49.2305 36.1838H49.7854H55.6402C61.7371 36.1838 66.6993 41.1865 66.7 47.3393V64.6695C66.7 70.8217 61.7378 75.825 55.6409 75.825H55.4919H55.4784H24.1396H24.1261H24.1091C18.0129 75.825 13.05 70.8223 13.05 64.6695V47.3393C13.05 41.1872 18.0122 36.1838 24.1091 36.1838H29.966H30.5211L30.0664 35.8655C25.5755 32.7213 22.6285 27.4874 22.6285 21.5693C22.6285 11.9766 30.3672 4.175 39.8768 4.175C49.3835 4.175 57.1208 11.9766 57.1208 21.5693C57.1208 27.4874 54.1738 32.7213 49.685 35.8655ZM57.1045 72.2367L57.1029 72.456L57.3171 72.4089C60.848 71.6317 63.4996 68.4589 63.4996 64.6695L63.4989 47.3393C63.4989 42.9701 59.9745 39.414 55.6395 39.414H24.1083C19.7734 39.414 16.249 42.9701 16.249 47.3393V64.6681C16.249 68.4232 18.8549 71.5703 22.3377 72.3833L22.551 72.4331L22.5525 72.2141L22.6576 57.4266C22.664 56.537 23.3808 55.8232 24.2574 55.8232H24.2575H24.2575H24.2576H24.2576H24.2577H24.2577H24.2578H24.2578H24.2579H24.2579H24.258H24.258H24.2581H24.2581H24.2582H24.2582H24.2583H24.2583H24.2584H24.2584H24.2585H24.2586H24.2586H24.2587H24.2587H24.2588H24.2588H24.2589H24.259H24.259H24.2591H24.2591H24.2592H24.2592H24.2593H24.2593H24.2594H24.2595H24.2595H24.2596H24.2596H24.2597H24.2597H24.2598H24.2599H24.2599H24.26H24.26H24.2601H24.2601H24.2602H24.2602H24.2603H24.2604H24.2604H24.2605H24.2605H24.2606H24.2606H24.2607H24.2607H24.2608H24.2608H24.2609H24.261H24.261H24.2611H24.2611H24.2612H24.2612H24.2613H24.2613H24.2614H24.2614H24.2615H24.2616H24.2616H24.2617H24.2617H24.2618H24.2618H24.2619H24.2619H24.262H24.262H24.2621H24.2621H24.2622H24.2623H24.2623H24.2624H24.2624H24.2625H24.2625H24.2626H24.2626H24.2627H24.2627H24.2628H24.2628H24.2629H24.2629H24.263H24.2631H24.2631H24.2632H24.2632H24.2633H24.2633H24.2634H24.2634H24.2635H24.2635H24.2636H24.2636H24.2637H24.2637H24.2638H24.2638H24.2639H24.2639H24.264H24.2641H24.2641H24.2642H24.2642H24.2643H24.2643H24.2644H24.2644H24.2645H24.2645H24.2646H24.2646H24.2647H24.2647H24.2648H24.2648H24.2649H24.2649H24.265H24.265H24.2651H24.2651H24.2652H24.2652H24.2653H24.2653H24.2654H24.2655H24.2655H24.2656H24.2656H24.2657H24.2657H24.2658H24.2658H24.2659H24.2659H24.266H24.266H24.2661H24.2661H24.2662H24.2662H24.2663H24.2663H24.2664H24.2664H24.2665H24.2665H24.2666H24.2666H24.2667H24.2667H24.2668H24.2668H24.2669H24.2669H24.267H24.267H24.2671H24.2671H24.2672H24.2672H24.2673H24.2673H24.2674H24.2674H24.2675H24.2675H24.2676H24.2676H24.2677H24.2677H24.2678H24.2678H24.2679H24.2679H24.268H24.268H24.2681H24.2681H24.2682H24.2682H24.2683H24.2683H24.2684H24.2684H24.2685H24.2685H24.2686H24.2686H24.2687H24.2687H24.2688H24.2688H24.2689H24.2689H24.269H24.269H24.2691H24.2691H24.2692H24.2692H24.2693H24.2693H24.2694H24.2694H24.2695H24.2695H24.2696L24.2696 55.8232L24.2697 55.8232H24.2697H24.2698H24.2698H24.2699H24.2699H24.27H24.27H24.2701H24.2701C25.1516 55.8299 25.8644 56.5572 25.858 57.4499L25.7515 72.4179L25.7502 72.5941H25.9265H53.7277H53.9014L53.9027 72.4204L54.0092 57.4274C54.0156 56.5377 54.7324 55.8239 55.609 55.8239H55.609H55.6091H55.6091H55.6092H55.6092H55.6093H55.6093H55.6094H55.6094H55.6095H55.6095H55.6096H55.6096H55.6097H55.6097H55.6098H55.6098H55.6099H55.61H55.61H55.6101H55.6101H55.6102H55.6102H55.6103H55.6103H55.6104H55.6104H55.6105H55.6105H55.6106H55.6106H55.6107H55.6107H55.6108H55.6108H55.6109H55.6109H55.6109H55.611H55.611H55.6111H55.6111H55.6112H55.6112H55.6113H55.6113H55.6113H55.6114H55.6114H55.6115H55.6115H55.6115H55.6116H55.6116H55.6117H55.6118H55.6118H55.6119H55.6119H55.612H55.612H55.6121H55.6121H55.6122H55.6122H55.6123H55.6123H55.6124H55.6124H55.6125H55.6125H55.6126H55.6126H55.6127H55.6127H55.6128H55.6129H55.6129H55.6129H55.613H55.613H55.6131H55.6132H55.6132H55.6133H55.6133H55.6134H55.6134H55.6135H55.6135H55.6136H55.6136H55.6137H55.6137H55.6138H55.6138H55.6139H55.6139H55.614H55.614H55.6141H55.6141H55.6142H55.6143H55.6143H55.6144H55.6144H55.6145H55.6145H55.6146H55.6146H55.6147H55.6147H55.6148H55.6148H55.6149H55.6149H55.615H55.615H55.6151H55.6152H55.6152H55.6153H55.6153H55.6154H55.6154H55.6155H55.6155H55.6156H55.6156H55.6157H55.6157H55.6158H55.6158H55.6159H55.6159H55.616H55.616H55.6161H55.6161H55.6162H55.6162H55.6163H55.6163H55.6164H55.6165H55.6165H55.6166H55.6166H55.6167H55.6167H55.6168H55.6168H55.6169H55.6169H55.617H55.617H55.6171H55.6171H55.6172H55.6172H55.6173H55.6173H55.6174H55.6174H55.6175H55.6175H55.6176H55.6176H55.6177H55.6177H55.6178H55.6178H55.6179H55.6179H55.618H55.618H55.6181H55.6181H55.6182H55.6182H55.6183H55.6183H55.6184H55.6184H55.6185H55.6185H55.6186H55.6187H55.6187H55.6188H55.6188H55.6189H55.6189H55.619H55.619H55.6191H55.6191H55.6192H55.6192H55.6193H55.6193H55.6194H55.6194H55.6195H55.6195H55.6196H55.6196H55.6197H55.6197H55.6198H55.6198H55.6199H55.6199H55.62H55.62H55.6201H55.6201H55.6202H55.6202H55.6203H55.6203H55.6204H55.6204H55.6205H55.6205H55.6206H55.6206H55.6207H55.6207H55.6208H55.6208H55.6209H55.6209H55.621H55.621H55.6211H55.6211H55.6212L55.6212 55.8239L55.6213 55.8239H55.6213H55.6214H55.6214H55.6215H55.6215H55.6216H55.6216H55.6217H55.6217C56.5032 55.8306 57.216 56.5579 57.2096 57.4506L57.1045 72.2367ZM39.8768 7.40517C32.1292 7.40517 25.8282 13.7609 25.8282 21.5693C25.8282 29.3784 32.1292 35.7349 39.8768 35.7349C47.6223 35.7349 53.9211 29.3783 53.9211 21.5693C53.9211 13.761 47.6223 7.40517 39.8768 7.40517Z" fill="#0B0F11" stroke="white" stroke-width="0.35"/>
</svg>
