<svg xmlns="http://www.w3.org/2000/svg" width="80" height="80" viewBox="0 0 80 80" fill="none">
    <path d="M28.375 17H76.375V43H28.375V34.5L40.375 30.5V26L28.375 27V17Z" fill="#FEF1D8"/>
    <path d="M23.2058 30.5489L23.2049 30.5491C23.1168 30.572 23.0234 30.5844 22.9312 30.5844H5.86406C5.02677 30.5844 4.34375 31.266 4.34375 32.1047V51.5812C4.34375 52.4512 5.05177 53.1578 5.92031 53.1578C6.79034 53.1578 7.49687 52.4497 7.49687 51.5828V35.0359C7.49687 34.4497 7.97315 33.9734 8.55937 33.9734C9.1456 33.9734 9.62187 34.4497 9.62187 35.0359V48.2906H16.1547H22.6875V35.0297C22.6875 34.5481 23.0114 34.1267 23.4755 34.0027L23.2058 30.5489ZM23.2058 30.5489L38.1713 26.5395M23.2058 30.5489L38.1713 26.5395M38.1713 26.5395C38.1713 26.5395 38.1714 26.5395 38.1714 26.5395M38.1713 26.5395L38.1714 26.5395M38.1714 26.5395C38.6078 26.4232 39.066 26.4841 39.4625 26.7129C39.8593 26.942 40.1411 27.307 40.2573 27.7431C40.3737 28.1796 40.3129 28.6378 40.0839 29.0344C39.8549 29.4311 39.4898 29.7129 39.0537 29.8292L39.0536 29.8293L23.4755 34.0027L38.1714 26.5395ZM22.6875 72.9203V73.0134C22.6383 74.4781 21.431 75.6562 19.9531 75.6562C18.444 75.6562 17.2172 74.4294 17.2172 72.9203V50.4141H22.6875V72.9203ZM37.6239 24.4855L37.6239 24.4855L22.7945 28.4594H17.2203V27.3635C21.1948 26.8414 24.275 23.4341 24.275 19.3188C24.275 15.2035 21.1963 11.796 17.2203 11.274V4.34375H75.6562V42.4922H24.8141V35.8428L39.6041 31.8801C40.5896 31.6168 41.4137 30.9816 41.9254 30.0953C42.4372 29.209 42.5747 28.1765 42.3114 27.1927C42.048 26.2072 41.4128 25.3832 40.5266 24.8714C39.6402 24.3597 38.6077 24.2222 37.6239 24.4855ZM76.7188 2.21875H16.1547C15.5685 2.21875 15.0922 2.69503 15.0922 3.28125V11.2724C11.1177 11.7945 8.0375 15.2019 8.0375 19.3172C8.0375 23.4325 11.1162 26.8399 15.0922 27.362V28.4578H5.86406C3.8544 28.4578 2.21875 30.0935 2.21875 32.1031V51.5797C2.21875 53.6206 3.8794 55.2812 5.92031 55.2812C6.48372 55.2812 7.01828 55.1547 7.49687 54.9285V72.9203C7.49687 75.6003 9.67784 77.7812 12.3578 77.7812C13.8934 77.7812 15.2652 77.0654 16.1563 75.9498C17.0474 77.0639 18.419 77.7812 19.9547 77.7812C22.6347 77.7812 24.8156 75.6003 24.8156 72.9203V49.3516V44.6172H76.7188C77.305 44.6172 77.7812 44.1409 77.7812 43.5547V3.28125C77.7812 2.69503 77.305 2.21875 76.7188 2.21875ZM10.1641 19.3172C10.1641 16.0143 12.8519 13.325 16.1562 13.325C19.4591 13.325 22.1484 16.0128 22.1484 19.3172C22.1484 22.6216 19.4607 25.3094 16.1562 25.3094C12.8518 25.3094 10.1641 22.6216 10.1641 19.3172ZM12.3578 75.6562C10.8502 75.6562 9.62187 74.4294 9.62187 72.9203V51.5812V50.4141H15.0922V72.9203C15.0922 74.4294 13.8653 75.6562 12.3578 75.6562Z"
          fill="#0B0F11" stroke="#0B0F11" stroke-width=".25"/>
</svg>