<svg width="80" height="80" viewBox="0 0 80 80" fill="none" xmlns="http://www.w3.org/2000/svg">
<path fill-rule="evenodd" clip-rule="evenodd" d="M78.0296 30.9939L59.9407 12.9048C59.3574 12.3213 58.5815 12 57.7563 12C56.9312 12 56.1554 12.3213 55.5721 12.9048L49.649 18.8279C49.0655 19.4113 48.7442 20.1872 48.7442 21.0122C48.7442 21.8373 49.0655 22.6131 49.649 23.1966L49.7639 23.3114L44.324 28.7513C41.3997 27.8616 38.1969 28.4412 35.7488 30.3642L29.2459 23.8611L29.9104 23.1966C30.4939 22.6132 30.8153 21.8373 30.8153 21.0122C30.8153 20.187 30.4939 19.4113 29.9104 18.8279L23.9874 12.9048C23.404 12.3213 22.6281 12 21.8031 12C20.978 12 20.2022 12.3213 19.6187 12.9048L1.52984 30.9939C0.946344 31.5772 0.625 32.3531 0.625 33.1783C0.625 34.0034 0.946344 34.7792 1.52984 35.3625L7.45291 41.2856C8.03625 41.8691 8.81216 42.1904 9.63716 42.1904C10.4623 42.1904 11.2381 41.8691 11.8216 41.2856L12.5606 40.5465L21.4102 49.3961C21.2138 49.5374 21.0269 49.6948 20.8524 49.8693L18.4132 52.3086C16.6682 54.0535 16.6682 56.893 18.4132 58.638C19.2857 59.5106 20.4318 59.9468 21.578 59.9468C21.6583 59.9468 21.7384 59.944 21.8187 59.9398C21.7534 61.1647 22.1869 62.4115 23.1205 63.3451C23.993 64.2177 25.1391 64.6539 26.2853 64.6539C26.5638 64.6539 26.8423 64.6276 27.117 64.5761C27.1817 65.6282 27.6141 66.6617 28.4161 67.4639C29.2615 68.3092 30.3853 68.7748 31.5809 68.7748C32.0783 68.7748 32.563 68.6931 33.0208 68.538L35.1059 70.6232C36.017 71.5343 37.2292 71.9999 38.4278 71.9999C39.4266 71.9999 40.4161 71.6764 41.2136 71.0178C42.1122 70.2755 42.6868 69.2135 42.8183 68.0682C44.2071 68.458 45.7341 68.2005 46.8715 67.2611C47.7612 66.5262 48.3333 65.4775 48.4722 64.3453C49.8748 64.7564 51.4266 64.5045 52.5781 63.5533C53.4692 62.8173 54.0417 61.7667 54.1795 60.6325C55.5799 61.0405 57.128 60.7875 58.2774 59.8382C59.2528 59.0326 59.8464 57.85 59.906 56.5936C59.9658 55.3363 59.4898 54.1049 58.6001 53.2152L57.3276 51.9427L67.8674 41.4029C68.4341 41.9099 69.1557 42.1901 69.9221 42.1901C70.7473 42.1901 71.523 41.8688 72.1064 41.2853L78.0294 35.3622C78.6129 34.7789 78.9343 34.003 78.9343 33.178C78.9344 32.3531 78.6131 31.5772 78.0296 30.9939ZM23.1203 57.0158C22.2699 57.8664 20.886 57.8664 20.0353 57.0158C19.1848 56.1653 19.1848 54.7814 20.0353 53.9309L22.4746 51.4917C22.8866 51.0796 23.4345 50.8526 24.017 50.8526C24.5996 50.8526 25.1475 51.0796 25.5595 51.4917C25.9716 51.9037 26.1984 52.4514 26.1984 53.0341C26.1984 53.6169 25.9716 54.1647 25.5595 54.5766L23.1203 57.0158ZM27.8276 61.7231C26.9772 62.5735 25.5933 62.5735 24.7426 61.7231C23.8921 60.8726 23.8921 59.4887 24.7426 58.6382L26.1548 57.226C27.0053 56.3754 28.3892 56.3754 29.2398 57.226C29.6518 57.638 29.8786 58.1859 29.8786 58.7685C29.8786 59.3511 29.6518 59.8989 29.2398 60.311L27.8276 61.7231ZM33.1233 65.842C32.7112 66.2541 32.1635 66.4809 31.5808 66.4809C30.998 66.4809 30.4503 66.2539 30.0383 65.842C29.1878 64.9915 29.1878 63.6076 30.0383 62.7571C30.4503 62.345 30.9982 62.118 31.5808 62.118C32.1634 62.118 32.7112 62.345 33.1233 62.7571C33.9738 63.6076 33.9738 64.9915 33.1233 65.842ZM57.6142 56.4848C57.5849 57.1059 57.3016 57.6688 56.8165 58.0693C55.9638 58.7737 54.6351 58.6648 53.7919 57.8214L51.7242 55.7536C51.2761 55.3056 50.5499 55.3057 50.1019 55.7536C49.6539 56.2015 49.6539 56.9279 50.1019 57.3759L51.2787 58.5527C51.7123 58.9863 51.9443 59.5866 51.9151 60.1998C51.8856 60.821 51.6021 61.3839 51.117 61.7845C50.2643 62.4888 48.9358 62.3799 48.0924 61.5365L46.0174 59.4615C45.5694 59.0135 44.8431 59.0135 44.3952 59.4615C43.9473 59.9095 43.9473 60.6358 44.3952 61.0837L45.572 62.2604C46.0056 62.694 46.2376 63.2944 46.2084 63.9075C46.1789 64.5288 45.8955 65.0915 45.4104 65.4922C44.5577 66.1964 43.229 66.0875 42.3858 65.2443L40.3595 63.218C39.9116 62.7701 39.1852 62.7701 38.7374 63.218C38.2894 63.666 38.2894 64.3924 38.7374 64.8402L39.9142 66.017C40.3478 66.4506 40.5798 67.0509 40.5506 67.6641C40.5211 68.2854 40.2376 68.8482 39.7525 69.2488C38.8998 69.953 37.5713 69.8442 36.7279 69.0009L34.9594 67.2325C36.4861 65.4763 36.4155 62.8045 34.7454 61.1344C34.0099 60.3988 33.0633 59.9512 32.0422 59.8472C32.1282 59.4983 32.1727 59.1368 32.1727 58.7682C32.1727 57.5727 31.7073 56.4487 30.8618 55.6034C30.1429 54.8845 29.2384 54.4625 28.301 54.3359C28.427 53.9191 28.4923 53.4815 28.4923 53.0337C28.4923 51.8382 28.0267 50.7142 27.1814 49.869C26.336 49.0237 25.2122 48.5581 24.0167 48.5581C23.9507 48.5581 23.8849 48.5601 23.8193 48.5629C23.8165 48.56 23.8139 48.557 23.8113 48.554C23.8079 48.5501 23.8045 48.5462 23.8008 48.5425L14.1828 38.9244L23.4262 29.681C23.8742 29.233 23.8742 28.5066 23.4262 28.0588C22.9782 27.6108 22.2519 27.6108 21.804 28.0588L10.1994 39.6634C9.88953 39.9733 9.38526 39.9734 9.07523 39.6634L3.15216 33.7404C2.84229 33.4305 2.84229 32.9261 3.15216 32.6162L21.241 14.5272C21.5509 14.2173 22.0552 14.2173 22.3652 14.5272L28.2883 20.4502C28.5981 20.7601 28.5981 21.2645 28.2883 21.5744L25.4468 24.4159C24.9988 24.8639 24.9988 25.5902 25.4468 26.038C25.8948 26.486 26.6211 26.486 27.069 26.038L27.6236 25.4834L34.0772 31.9372L29.0044 37.0099C28.159 37.8553 27.6935 38.9791 27.6935 40.1747C27.6935 41.3703 28.1589 42.4942 29.0044 43.3395C29.8769 44.2123 31.0228 44.6483 32.169 44.6483C33.3151 44.6483 34.4614 44.2119 35.3338 43.3395L40.4068 38.2665L56.9778 54.8377C57.4114 55.2713 57.6434 55.8716 57.6142 56.4848ZM70.4845 39.6634L76.4076 33.7403C76.7174 33.4305 76.7174 32.9262 76.4079 32.616L58.3189 14.527C58.009 14.2171 57.5047 14.2171 57.1947 14.527L51.2716 20.45C50.9617 20.7599 50.9617 21.2643 51.2716 21.5742L67.564 37.867L69.3603 39.6634C69.6702 39.9733 70.1745 39.9734 70.4845 39.6634ZM65.9417 39.4891L66.2395 39.7869L55.7058 50.3206L41.2184 35.8331C40.7704 35.3851 40.0441 35.3851 39.5963 35.8331L33.7122 41.7171C32.8616 42.5677 31.4778 42.5675 30.6272 41.7171C30.2152 41.3051 29.9884 40.7572 29.9884 40.1747C29.9884 39.5921 30.2152 39.0442 30.6272 38.6322L36.5113 32.7481C38.8615 30.3979 42.4815 29.9632 45.3147 31.6908C45.8557 32.0207 46.5614 31.8495 46.8913 31.3086C47.2111 30.7839 47.0589 30.1055 46.5562 29.7639L51.3866 24.9335L65.9417 39.4891Z" fill="#0B0F11"/>
<path d="M70.4844 39.6634L76.4074 33.7403C76.7173 33.4305 76.7173 32.9262 76.4077 32.616L58.3187 14.527C58.0088 14.2171 57.5046 14.2171 57.1945 14.527L51.2715 20.4501C50.9616 20.7599 50.9616 21.2644 51.2715 21.5742L67.5638 37.867L69.3602 39.6634C69.6701 39.9733 70.1743 39.9734 70.4844 39.6634Z" fill="#FEF1D8"/>
</svg>
