<svg width="78" height="78" viewBox="0 0 78 78" fill="none" xmlns="http://www.w3.org/2000/svg">
<path d="M28.7157 54.5C40.7021 54.5 50.4191 50.8811 50.4191 46.4169L50.4191 62.4999L45.5 65.9999L39.5 68.4999L29 68.9999L19.5 68.4999L10.5 65.4999L7.0121 61.9999L7.01208 46.4169C7.01208 50.8811 16.7291 54.5 28.7157 54.5Z" fill="#F7E6C5"/>
<path d="M50.953 39.2655H61.1743" stroke="black" stroke-width="2.5" stroke-miterlimit="22.9256" stroke-linecap="round" stroke-linejoin="round"/>
<path d="M71 35.8132H63.0332V43.78H71V35.8132Z" stroke="black" stroke-width="2.5" stroke-miterlimit="22.9256" stroke-linecap="round" stroke-linejoin="round"/>
<path d="M71 19.083H63.0332V27.0498H71V19.083Z" stroke="black" stroke-width="2.5" stroke-miterlimit="22.9256" stroke-linecap="round" stroke-linejoin="round"/>
<path d="M71 52.5436H63.0332V60.5104H71V52.5436Z" stroke="black" stroke-width="2.5" stroke-miterlimit="22.9256" stroke-linecap="round" stroke-linejoin="round"/>
<path d="M51.292 23.0663H61.1743" stroke="black" stroke-width="2.5" stroke-miterlimit="22.9256" stroke-linecap="round" stroke-linejoin="round"/>
<path d="M51.292 56.527H61.1743" stroke="black" stroke-width="2.5" stroke-miterlimit="22.9256" stroke-linecap="round" stroke-linejoin="round"/>
<path d="M50.4191 47.0037V60.0772C50.4191 60.3644 50.4191 60.5494 50.4191 61.0321C50.4191 65.4963 40.7021 69.1151 28.7157 69.1151C16.7291 69.1151 7.01208 65.4962 7.01208 61.0321C7.01208 60.5496 7.01222 60.4992 7.01222 60.0772V47.0037" stroke="black" stroke-width="2.5" stroke-miterlimit="22.9256" stroke-linecap="round" stroke-linejoin="round"/>
<path d="M50.4191 32.3322V45.4057C50.4191 45.6929 50.4191 45.8778 50.4191 46.3606C50.4191 50.8248 40.7021 54.4438 28.7157 54.4438C16.7291 54.4438 7.01208 50.8248 7.01208 46.3606C7.01208 45.8781 7.01222 45.8277 7.01222 45.4057V32.3322" stroke="black" stroke-width="2.5" stroke-miterlimit="22.9256" stroke-linecap="round" stroke-linejoin="round"/>
<path d="M50.4191 17.5991V30.6726C50.4191 30.9599 50.4191 31.1448 50.4191 31.6276C50.4191 36.0918 40.7021 39.7107 28.7157 39.7107C16.7291 39.7107 7.01208 36.0918 7.01208 31.6276C7.01208 31.1451 7.01222 31.0946 7.01222 30.6726V17.5991" stroke="black" stroke-width="2.5" stroke-miterlimit="22.9256" stroke-linecap="round" stroke-linejoin="round"/>
<path d="M28.7034 25.0509C40.6899 25.0509 50.4069 21.4319 50.4069 16.9678C50.4069 12.5036 40.6899 8.88464 28.7034 8.88464C16.717 8.88464 7 12.5036 7 16.9678C7 21.4319 16.717 25.0509 28.7034 25.0509Z" stroke="black" stroke-width="2.5" stroke-miterlimit="22.9256" stroke-linecap="round" stroke-linejoin="round"/>
</svg>
