<svg width="91" height="56" viewBox="0 0 91 56" fill="none" xmlns="http://www.w3.org/2000/svg">
<g clip-path="url(#clip0_1_786)">
<g opacity="0.8">
<path d="M65.2153 25.3269C65.2153 28.3534 66.0274 30.7029 67.6515 32.3755C69.2757 34.0082 71.3357 34.8245 73.8314 34.8245C76.644 34.8245 78.7238 34.0679 80.0707 32.5547C81.4176 31.0016 82.091 28.6322 82.091 25.4464H90.4695C90.4695 28.9508 89.7564 31.9772 88.3303 34.5259C86.9438 37.0347 85.0225 38.9461 82.5664 40.2603C80.1103 41.5346 77.3373 42.1717 74.2474 42.1717H73.4155C70.0086 42.1717 66.9583 41.4748 64.2645 40.0811C61.5707 38.6873 59.4513 36.6364 57.9064 33.9285C56.3614 31.1808 55.5889 27.8756 55.5889 24.0128V18.1589C55.5889 14.4156 56.3614 11.1701 57.9064 8.4224C59.4513 5.67467 61.5509 3.584 64.2051 2.1504C66.8989 0.7168 69.8898 0 73.1778 0H74.0097C77.1788 0 79.9915 0.637156 82.4476 1.91147C84.9433 3.14596 86.9042 5.03751 88.3303 7.58614C89.7564 10.0949 90.4695 13.1812 90.4695 16.8448H81.7345C81.7345 13.7387 81.0413 11.3892 79.6547 9.79627C78.3079 8.16356 76.3469 7.3472 73.772 7.3472C71.2763 7.3472 69.2163 8.18347 67.5921 9.856C66.0075 11.4887 65.2153 13.8183 65.2153 16.8448V25.3269Z" fill="white"/>
<path d="M61.4123 8.94486H62.2912L62.404 8.07319L63.3547 0.725989L63.5008 -0.402344H62.363H34.7913H33.7913V0.597656V41.5747V42.5747H34.7913H43.8234H44.8234V41.5747V26.0883H59.6296H60.6296V25.0883V17.7411V16.7411H59.6296H44.8234V8.94486H61.4123Z" fill="white" stroke="#131B22" stroke-width="2"/>
<path d="M8.85384 42.5747H9.56085L9.79661 41.9082L12.4131 34.5107H27.231L29.961 41.9204L30.202 42.5747H30.8993H40.5256H41.9499L41.4662 41.2351L26.6702 0.258037L26.4317 -0.402344H25.7296H14.796H14.0939L13.8555 0.258037L-0.940563 41.2351L-1.42427 42.5747H0H8.85384ZM24.1021 25.5219H15.6032L19.8765 13.0966C21.4768 17.7565 22.8853 21.8982 24.1021 25.5219Z" fill="white" stroke="#131B22" stroke-width="2"/>
</g>
<g opacity="0.4">
<path d="M90.6077 54.1814C90.6077 54.6583 90.4944 55.0605 90.2678 55.3879C90.0412 55.7083 89.7403 55.9467 89.365 56.1033C88.9967 56.2528 88.5931 56.3276 88.1541 56.3276H87.9841C87.4813 56.3276 87.0281 56.2208 86.6245 56.0072C86.2209 55.7937 85.9022 55.4876 85.6685 55.089C85.4419 54.6832 85.3286 54.2027 85.3286 53.6475V53.3378C85.3286 52.7897 85.4455 52.3128 85.6791 51.907C85.9128 51.5013 86.2279 51.1916 86.6245 50.978C87.0281 50.7645 87.4813 50.6577 87.9841 50.6577H88.1541C88.5931 50.6577 89.0003 50.7503 89.3756 50.9353C89.7509 51.1133 90.0519 51.3767 90.2785 51.7255C90.5051 52.0672 90.6184 52.4729 90.6184 52.9427V53.7542H86.9007V54.0105C86.9007 54.3664 87.0034 54.6654 87.2087 54.9074C87.4211 55.1423 87.7079 55.2598 88.0691 55.2598C88.3948 55.2598 88.6498 55.1708 88.8339 54.9929C89.0251 54.8078 89.1207 54.5373 89.1207 54.1814H90.6077ZM87.9947 51.7255C87.6832 51.7255 87.4282 51.8358 87.23 52.0565C87.0388 52.2772 86.929 52.5583 86.9007 52.9H89.0463C89.0463 52.537 88.9613 52.2522 88.7914 52.0458C88.6285 51.8323 88.363 51.7255 87.9947 51.7255Z" fill="white"/>
<path d="M83.4245 52.6331C83.4245 52.4124 83.3643 52.2238 83.2439 52.0672C83.1235 51.9034 82.9323 51.8216 82.6703 51.8216C82.4225 51.8216 82.2313 51.9212 82.0967 52.1206C81.9693 52.3128 81.9055 52.5548 81.9055 52.8466V56.2208H80.376V50.7645H81.5232L81.7143 51.5653C81.7427 51.487 81.8135 51.3767 81.9268 51.2343C82.0472 51.0919 82.2171 50.9602 82.4366 50.8392C82.6632 50.7182 82.9288 50.6577 83.2333 50.6577C83.7219 50.6577 84.0972 50.8108 84.3592 51.1169C84.6283 51.4229 84.7629 51.8287 84.7629 52.3341C84.7629 52.4409 84.7558 52.5477 84.7416 52.6544C84.7345 52.7612 84.7274 52.836 84.7204 52.8787H83.4245V52.6331Z" fill="white"/>
<path d="M79.3764 56.1251C79.2348 56.182 79.0471 56.2283 78.8134 56.2639C78.5868 56.3066 78.385 56.328 78.208 56.328C77.6627 56.328 77.252 56.2105 76.9758 55.9756C76.6997 55.7407 76.5616 55.3492 76.5616 54.801V51.8326H75.9667V50.7649H76.6147L77.1564 49.0244H78.1124V50.7649H79.3764V51.8326H78.1124V54.5341C78.1124 54.8188 78.1655 55.011 78.2717 55.1107C78.385 55.2104 78.5337 55.2602 78.7178 55.2602C78.8028 55.2602 78.9126 55.2459 79.0471 55.2175C79.1817 55.189 79.2914 55.157 79.3764 55.1214V56.1251Z" fill="white"/>
<path d="M71.4241 51.5653C71.8702 50.9602 72.4473 50.6577 73.1554 50.6577C73.7078 50.6577 74.161 50.8072 74.5151 51.1062C74.8762 51.4052 75.0568 51.8394 75.0568 52.4089V56.2208H73.506V52.7505C73.506 52.4729 73.4245 52.2451 73.2617 52.0672C73.1059 51.8821 72.9041 51.7895 72.6562 51.7895C72.38 51.7895 72.1428 51.8963 71.9445 52.1099C71.7463 52.3163 71.6471 52.569 71.6471 52.868V56.2208H70.0963V50.7645H71.2541L71.4241 51.5653Z" fill="white"/>
<path d="M68.9281 54.1814C68.9281 54.6583 68.8148 55.0605 68.5882 55.3879C68.3615 55.7083 68.0606 55.9467 67.6853 56.1033C67.3171 56.2528 66.9134 56.3276 66.4744 56.3276H66.3044C65.8016 56.3276 65.3484 56.2208 64.9448 56.0072C64.5412 55.7937 64.2225 55.4876 63.9888 55.089C63.7622 54.6832 63.6489 54.2027 63.6489 53.6475V53.3378C63.6489 52.7897 63.7658 52.3128 63.9995 51.907C64.2331 51.5013 64.5483 51.1916 64.9448 50.978C65.3484 50.7645 65.8016 50.6577 66.3044 50.6577H66.4744C66.9134 50.6577 67.3206 50.7503 67.6959 50.9353C68.0712 51.1133 68.3722 51.3767 68.5988 51.7255C68.8254 52.0672 68.9387 52.4729 68.9387 52.9427V53.7542H65.221V54.0105C65.221 54.3664 65.3237 54.6654 65.529 54.9074C65.7415 55.1423 66.0283 55.2598 66.3894 55.2598C66.7151 55.2598 66.9701 55.1708 67.1542 54.9929C67.3454 54.8078 67.441 54.5373 67.441 54.1814H68.9281ZM66.315 51.7255C66.0035 51.7255 65.7485 51.8358 65.5503 52.0565C65.3591 52.2772 65.2493 52.5583 65.221 52.9H67.3666C67.3666 52.537 67.2816 52.2522 67.1117 52.0458C66.9488 51.8323 66.6833 51.7255 66.315 51.7255Z" fill="white"/>
<path d="M58.1719 53.3169C58.1719 53.8579 58.317 54.2779 58.6074 54.5769C58.8977 54.8687 59.2659 55.0146 59.7121 55.0146C60.2148 55.0146 60.5866 54.8794 60.8274 54.6089C61.0681 54.3313 61.1885 53.9077 61.1885 53.3382H62.6862C62.6862 53.9647 62.5588 54.5057 62.3038 54.9613C62.056 55.4097 61.7125 55.7514 61.2735 55.9863C60.8345 56.2141 60.3388 56.328 59.7864 56.328H59.6377C59.0287 56.328 58.4835 56.2034 58.0019 55.9543C57.5204 55.7051 57.1415 55.3385 56.8654 54.8545C56.5892 54.3633 56.4511 53.7725 56.4511 53.082V52.0356C56.4511 51.3664 56.5892 50.7863 56.8654 50.2951C57.1415 49.8039 57.5169 49.4302 57.9913 49.1739C58.4728 48.9177 59.0075 48.7896 59.5952 48.7896H59.7439C60.3104 48.7896 60.8132 48.9034 61.2523 49.1312C61.6984 49.3519 62.0489 49.69 62.3038 50.1456C62.5588 50.5941 62.6862 51.1458 62.6862 51.8007H61.1248C61.1248 51.2454 61.0009 50.8254 60.753 50.5407C60.5122 50.2488 60.1617 50.1029 59.7014 50.1029C59.2553 50.1029 58.8871 50.2524 58.5968 50.5514C58.3135 50.8432 58.1719 51.2597 58.1719 51.8007V53.3169Z" fill="white"/>
<path d="M51.5285 55.5378C51.1319 56.0645 50.6221 56.3279 49.9989 56.3279C49.5741 56.3279 49.1917 56.2247 48.8518 56.0183C48.5119 55.8118 48.2428 55.4986 48.0445 55.0786C47.8462 54.6586 47.7471 54.139 47.7471 53.5197V53.4022C47.7471 52.8114 47.8391 52.3095 48.0232 51.8967C48.2074 51.4838 48.4552 51.1742 48.7668 50.9677C49.0854 50.7613 49.4431 50.6581 49.8396 50.6581C50.1795 50.6581 50.4769 50.7292 50.7319 50.8716C50.9939 51.014 51.2028 51.1884 51.3585 51.3948V48.5332H52.9094V56.2211H51.6878L51.5285 55.5378ZM49.3191 53.9681C49.3191 54.381 49.4147 54.7013 49.6059 54.9291C49.7971 55.1498 50.0414 55.2601 50.3388 55.2601C50.6363 55.2601 50.8806 55.1498 51.0718 54.9291C51.263 54.7013 51.3585 54.381 51.3585 53.9681V53.0819C51.3585 52.6619 51.263 52.3416 51.0718 52.1209C50.8806 51.9002 50.6363 51.7899 50.3388 51.7899C50.0414 51.7899 49.7971 51.9002 49.6059 52.1209C49.4147 52.3416 49.3191 52.6619 49.3191 53.0819V53.9681Z" fill="white"/>
<path d="M46.4265 54.9396C46.4265 55.0464 46.4584 55.1283 46.5221 55.1852C46.5859 55.235 46.6567 55.26 46.7346 55.26C46.8054 55.26 46.8833 55.2457 46.9683 55.2172C47.0532 55.1888 47.1205 55.1639 47.1701 55.1425V56.1035C46.9081 56.253 46.5965 56.3277 46.2353 56.3277C45.5272 56.3277 45.1165 56.0679 45.0032 55.5483C44.5571 56.0679 44.0118 56.3277 43.3674 56.3277C42.8151 56.3277 42.3583 56.1782 41.9972 55.8793C41.6431 55.5803 41.4661 55.1461 41.4661 54.5766V50.7646H43.0169V54.2349C43.0169 54.5125 43.0948 54.7439 43.2506 54.9289C43.4134 55.1069 43.6188 55.1959 43.8666 55.1959C44.1428 55.1959 44.38 55.0927 44.5783 54.8862C44.7766 54.6727 44.8757 54.4164 44.8757 54.1174V50.7646H46.4265V54.9396Z" fill="white"/>
<path d="M38.4635 52.537C38.4635 52.295 38.3856 52.0992 38.2298 51.9497C38.0811 51.8002 37.8368 51.7255 37.4969 51.7255C37.2986 51.7255 37.1287 51.7611 36.9871 51.8323C36.8454 51.8963 36.7357 51.9782 36.6578 52.0778C36.587 52.1775 36.5516 52.27 36.5516 52.3555V52.4409H35.0539C35.0397 52.3555 35.0326 52.2914 35.0326 52.2487C35.0326 51.9426 35.1318 51.6685 35.33 51.4265C35.5354 51.1845 35.8186 50.9958 36.1798 50.8606C36.5409 50.7253 36.9552 50.6577 37.4226 50.6577H37.6456C38.4104 50.6577 38.9911 50.8108 39.3876 51.1169C39.7842 51.4158 39.9825 51.8287 39.9825 52.3555V54.8754C39.9825 55.0035 40.0108 55.0996 40.0674 55.1637C40.1312 55.2278 40.2055 55.2598 40.2905 55.2598C40.3613 55.2598 40.4392 55.2456 40.5242 55.2171C40.6092 55.1886 40.6764 55.1637 40.726 55.1423V56.1033C40.464 56.2528 40.1524 56.3276 39.7913 56.3276C39.4018 56.3276 39.1044 56.2493 38.899 56.0927C38.6937 55.9289 38.5733 55.7011 38.5379 55.4093C38.0422 56.0215 37.4332 56.3276 36.7109 56.3276C36.1727 56.3276 35.7301 56.2172 35.3831 55.9966C35.0362 55.7759 34.8627 55.3559 34.8627 54.7366C34.8627 54.2312 35.0043 53.8468 35.2875 53.5834C35.5779 53.3129 35.978 53.1314 36.4878 53.0388C36.9977 52.9463 37.6563 52.9 38.4635 52.9V52.537ZM38.4635 53.7756C37.7908 53.7756 37.288 53.8432 36.9552 53.9785C36.6295 54.1066 36.4666 54.3202 36.4666 54.6191C36.4666 54.854 36.5303 55.0213 36.6578 55.121C36.7923 55.2135 36.9941 55.2598 37.2632 55.2598C37.4474 55.2598 37.6315 55.21 37.8156 55.1103C37.9997 55.0107 38.1519 54.8683 38.2723 54.6832C38.3998 54.4981 38.4635 54.2917 38.4635 54.0639V53.7756Z" fill="white"/>
<path d="M32.9908 52.6331C32.9908 52.4124 32.9306 52.2238 32.8103 52.0672C32.6899 51.9034 32.4987 51.8216 32.2367 51.8216C31.9888 51.8216 31.7976 51.9212 31.6631 52.1206C31.5356 52.3128 31.4719 52.5548 31.4719 52.8466V56.2208H29.9423V50.7645H31.0895L31.2807 51.5653C31.309 51.487 31.3798 51.3767 31.4931 51.2343C31.6135 51.0919 31.7835 50.9602 32.003 50.8392C32.2296 50.7182 32.4951 50.6577 32.7996 50.6577C33.2882 50.6577 33.6636 50.8108 33.9256 51.1169C34.1947 51.4229 34.3292 51.8287 34.3292 52.3341C34.3292 52.4409 34.3221 52.5477 34.308 52.6544C34.3009 52.7612 34.2938 52.836 34.2867 52.8787H32.9908V52.6331Z" fill="white"/>
<path d="M28.7794 50.2098H25.6353V51.961H28.4607V53.2743H25.6353V56.2214H24.0208V48.8965H28.9494L28.7794 50.2098Z" fill="white"/>
<path d="M20.4968 52.6333H23.1841V54H20.4968V52.6333Z" fill="white"/>
<path d="M18.2308 48.5332H19.8028V49.7611H18.2308V48.5332ZM18.2414 56.2211V50.7648H19.7922V56.2211H18.2414Z" fill="white"/>
<path d="M17.2419 56.1251C17.1003 56.182 16.9127 56.2283 16.679 56.2639C16.4524 56.3066 16.2505 56.328 16.0735 56.328C15.5283 56.328 15.1175 56.2105 14.8414 55.9756C14.5652 55.7407 14.4271 55.3492 14.4271 54.801V51.8326H13.8323V50.7649H14.4802L15.0219 49.0244H15.9779V50.7649H17.2419V51.8326H15.9779V54.5341C15.9779 54.8188 16.031 55.011 16.1372 55.1107C16.2505 55.2104 16.3993 55.2602 16.5834 55.2602C16.6683 55.2602 16.7781 55.2459 16.9127 55.2175C17.0472 55.189 17.157 55.157 17.2419 55.1214V56.1251Z" fill="white"/>
<path d="M9.2896 51.5653C9.73573 50.9602 10.3129 50.6577 11.021 50.6577C11.5733 50.6577 12.0265 50.8072 12.3806 51.1062C12.7417 51.4052 12.9223 51.8394 12.9223 52.4089V56.2208H11.3715V52.7505C11.3715 52.4729 11.2901 52.2451 11.1272 52.0672C10.9714 51.8821 10.7696 51.7895 10.5218 51.7895C10.2456 51.7895 10.0084 51.8963 9.81008 52.1099C9.6118 52.3163 9.51266 52.569 9.51266 52.868V56.2208H7.96185V50.7645H9.11965L9.2896 51.5653Z" fill="white"/>
<path d="M4.99234 54.7799H2.09253L1.58268 56.2214H0L2.64488 48.8965H4.59932L7.2442 56.2214H5.52343L4.99234 54.7799ZM2.53866 53.5306H4.55683C4.28774 52.7262 3.962 51.7688 3.57961 50.6583H3.5265L2.53866 53.5306Z" fill="white"/>
</g>
</g>
<defs>
<clipPath id="clip0_1_786">
<rect width="90.6182" height="56" fill="white"/>
</clipPath>
</defs>
</svg>
