<svg width="57" height="40" viewBox="0 0 57 40" fill="none" xmlns="http://www.w3.org/2000/svg">
<g clip-path="url(#clip0_215_165)">
<path fill-rule="evenodd" clip-rule="evenodd" d="M0 0H57V40H0V0Z" fill="url(#paint0_linear_215_165)"/>
<path fill-rule="evenodd" clip-rule="evenodd" d="M-0.00543213 0H56.9946V40H-0.00543213V0Z" fill="url(#paint1_linear_215_165)"/>
<path fill-rule="evenodd" clip-rule="evenodd" d="M13.5796 26.6667H-0.00540924V13.3334H13.5796L-5.65112 0.586697L-2.61655 -3.83197L21.7089 12.288V-2.66664H35.2803V12.288L59.6057 -3.83197L62.6403 0.586697L43.4096 13.3334H56.9946V26.6667H43.4096L62.6403 39.4134L59.6057 43.832L35.2803 27.712V42.6667H21.7089V27.712L-2.61655 43.832L-5.65112 39.4107L13.5796 26.6667Z" fill="url(#paint2_linear_215_165)"/>
<path d="M38.3692 13.2214L64.1549 -3.44531C64.2964 -3.54608 64.3929 -3.69661 64.4242 -3.86555C64.4556 -4.03449 64.4194 -4.20879 64.3232 -4.35215C64.2269 -4.4955 64.0781 -4.59685 63.9077 -4.63507C63.7373 -4.67329 63.5585 -4.64543 63.4084 -4.55731L37.6227 12.1094C37.5441 12.1556 37.4758 12.2169 37.4219 12.2898C37.3681 12.3626 37.3298 12.4454 37.3094 12.5332C37.289 12.6209 37.2869 12.7118 37.3033 12.8004C37.3196 12.889 37.354 12.9734 37.4045 13.0486C37.4549 13.1237 37.5204 13.1881 37.5968 13.2377C37.6732 13.2873 37.7591 13.3212 37.8493 13.3374C37.9394 13.3535 38.0319 13.3516 38.1213 13.3316C38.2106 13.3117 38.295 13.2742 38.3692 13.2214ZM40.356 27.9467L63.4682 43.2534C63.5421 43.3024 63.6252 43.3366 63.7126 43.3541C63.8 43.3716 63.8901 43.372 63.9777 43.3553C64.0653 43.3386 64.1487 43.3051 64.2231 43.2567C64.2975 43.2083 64.3615 43.146 64.4114 43.0734C64.4613 43.0007 64.4961 42.9191 64.5139 42.8332C64.5317 42.7473 64.5321 42.6588 64.5151 42.5727C64.4981 42.4867 64.464 42.4048 64.4148 42.3317C64.3655 42.2586 64.3021 42.1957 64.2282 42.1467L41.1133 26.84C40.9639 26.7414 40.7808 26.705 40.6041 26.739C40.4275 26.7731 40.2719 26.8746 40.1714 27.0214C40.071 27.1681 40.034 27.348 40.0687 27.5216C40.1033 27.6951 40.2066 27.848 40.356 27.9467ZM16.6712 12.0694L-7.43713 -3.89597C-7.51109 -3.945 -7.59416 -3.97924 -7.68159 -3.99672C-7.76901 -4.01421 -7.85909 -4.01461 -7.94668 -3.99789C-8.03426 -3.98118 -8.11764 -3.94768 -8.19205 -3.89931C-8.26646 -3.85094 -8.33044 -3.78864 -8.38034 -3.71597C-8.43024 -3.64331 -8.46509 -3.5617 -8.48289 -3.4758C-8.50069 -3.38991 -8.50109 -3.30141 -8.48408 -3.21536C-8.46707 -3.12931 -8.43297 -3.0474 -8.38373 -2.9743C-8.3345 -2.90119 -8.27109 -2.83834 -8.19713 -2.78931L15.9139 13.1734C16.0629 13.2607 16.2402 13.2886 16.4095 13.2514C16.5788 13.2142 16.7272 13.1147 16.8241 12.9733C16.9211 12.832 16.9593 12.6596 16.9308 12.4914C16.9024 12.3233 16.8094 12.1723 16.6712 12.0694ZM18.5304 26.6534L-8.1917 44.0667C-8.2713 44.1125 -8.34055 44.1739 -8.39521 44.2469C-8.44986 44.32 -8.48878 44.4032 -8.50958 44.4915C-8.53038 44.5799 -8.53262 44.6714 -8.51617 44.7606C-8.49972 44.8498 -8.46492 44.9348 -8.41391 45.0104C-8.36289 45.0859 -8.29673 45.1504 -8.21946 45.2C-8.1422 45.2496 -8.05545 45.2831 -7.96453 45.2986C-7.87361 45.3141 -7.78043 45.3113 -7.69068 45.2902C-7.60093 45.2691 -7.5165 45.2303 -7.44256 45.176L19.2823 27.7654C19.3566 27.7169 19.4205 27.6544 19.4703 27.5817C19.52 27.5089 19.5547 27.4273 19.5724 27.3414C19.59 27.2554 19.5903 27.1669 19.5731 27.0809C19.5559 26.9949 19.5217 26.913 19.4723 26.84C19.4229 26.767 19.3594 26.7043 19.2854 26.6554C19.2113 26.6065 19.1282 26.5724 19.0407 26.555C18.9533 26.5377 18.8632 26.5375 18.7756 26.5543C18.6881 26.5712 18.6048 26.6049 18.5304 26.6534Z" fill="#DB1F35"/>
<path fill-rule="evenodd" clip-rule="evenodd" d="M-0.00543213 24H24.4231V40H32.566V24H56.9946V16H32.566V0H24.4231V16H-0.00543213V24Z" fill="url(#paint3_linear_215_165)"/>
</g>
<defs>
<linearGradient id="paint0_linear_215_165" x1="2850" y1="0" x2="2850" y2="4000" gradientUnits="userSpaceOnUse">
<stop stop-color="white"/>
<stop offset="1" stop-color="#F0F0F0"/>
</linearGradient>
<linearGradient id="paint1_linear_215_165" x1="2849.99" y1="0" x2="2849.99" y2="4000" gradientUnits="userSpaceOnUse">
<stop stop-color="#0A17A7"/>
<stop offset="1" stop-color="#030E88"/>
</linearGradient>
<linearGradient id="paint2_linear_215_165" x1="3408.92" y1="-3.83197" x2="3408.92" y2="4762.57" gradientUnits="userSpaceOnUse">
<stop stop-color="white"/>
<stop offset="1" stop-color="#F0F0F0"/>
</linearGradient>
<linearGradient id="paint3_linear_215_165" x1="2849.99" y1="0" x2="2849.99" y2="4000" gradientUnits="userSpaceOnUse">
<stop stop-color="#E6273E"/>
<stop offset="1" stop-color="#CF152B"/>
</linearGradient>
<clipPath id="clip0_215_165">
<rect width="57" height="40" fill="white"/>
</clipPath>
</defs>
</svg>
