<svg width="78" height="78" viewBox="0 0 78 78" fill="none" xmlns="http://www.w3.org/2000/svg">
<path d="M22.5161 49.3763L18 54.5376L24.7742 59.6989L31.0968 63.1398L40.5806 64L46.9032 63.1398L55.9355 58.8387L60 54.1075L55.9355 48.9462L49.6129 44.6452L42.3871 42.4946L45.5484 40.3441L48.7097 36.9032V32.172L46.9032 27.4409L43.7419 24.8602L38.3226 24L32.4516 26.1505L29.2903 31.7419L30.6452 38.1935L36.0645 42.4946L32 43.3548L22.5161 49.3763Z" fill="#F7E6C5"/>
<path d="M60.6447 55.0171L60.705 55.0617L60.6447 55.0171C60.0537 55.8147 59.4195 56.5781 58.7461 57.3047C53.8282 62.607 46.8017 65.925 39 65.925C24.1296 65.925 12.075 53.8701 12.075 39C12.075 24.1296 24.1296 12.075 39 12.075C53.8701 12.075 65.925 24.1296 65.925 39C65.925 44.9998 63.9628 50.5412 60.6447 55.0171ZM59.1456 52.5417L59.208 52.6348L59.2703 52.5417C61.8629 48.6685 63.3748 44.0106 63.3748 39C63.3748 25.5381 52.4619 14.6249 38.9997 14.6249C25.5381 14.6249 14.6249 25.5381 14.6249 39C14.6249 44.0109 16.1369 48.6685 18.7297 52.5417L18.792 52.6348L18.8544 52.5417C22.1053 47.685 27.066 44.0694 32.8751 42.5561L33.0332 42.5149L32.8989 42.4218C30.1046 40.4855 28.2749 37.2565 28.2749 33.5998C28.2749 27.6766 33.0768 22.8748 39 22.8748C44.9232 22.8748 49.7251 27.6766 49.7251 33.5998C49.7251 37.2563 47.8951 40.4855 45.1011 42.4216L44.9668 42.5146L45.1249 42.5558C50.9337 44.0694 55.8947 47.6847 59.1456 52.5417ZM57.5258 54.8416L57.5611 54.8003L57.5329 54.7538C53.7306 48.5014 46.8533 44.3249 39.0003 44.3249C31.147 44.3249 24.2694 48.5014 20.4671 54.7541L20.4389 54.8005L20.4742 54.8418C24.9447 60.0648 31.5857 63.3751 39 63.3751C46.4143 63.3751 53.0553 60.0645 57.5258 54.8416ZM39 41.7749C43.515 41.7749 47.1751 38.1151 47.1751 33.5998C47.1751 29.0848 43.5153 25.4247 39 25.4247C34.4847 25.4247 30.8249 29.0851 30.8249 33.6001C30.8249 38.1151 34.485 41.7749 39 41.7749Z" fill="black" stroke="white" stroke-width="0.15"/>
</svg>
