<svg width="78" height="78" viewBox="0 0 78 78" fill="none" xmlns="http://www.w3.org/2000/svg">
<path d="M21.752 49.7559C12.9632 39.2872 13.4921 23.6511 23.3388 13.8043C33.7445 3.39858 50.6156 3.39858 61.0213 13.8043C71.427 24.21 71.427 41.0811 61.0213 51.4868C53.0729 59.4353 41.352 61.3123 31.6219 57.1177" stroke="black" stroke-width="2.5" stroke-miterlimit="10" stroke-linecap="round" stroke-linejoin="round"/>
<path d="M48.3515 24.2452C48.3515 24.2452 44.5544 21.0534 40.0768 22.4023C35.9654 23.6408 35.3903 28.3816 38.3649 30.3209C38.3649 30.3209 41.2835 31.623 44.5209 32.8171C52.3137 35.6916 48.9569 43.2306 42.6835 43.2306C39.5419 43.2306 36.9053 41.8549 35.3095 40.0938" stroke="black" stroke-width="2.5" stroke-miterlimit="10" stroke-linecap="round" stroke-linejoin="round"/>
<path d="M42.1802 43.2184V47.4898" stroke="black" stroke-width="2.25" stroke-miterlimit="10" stroke-linecap="round" stroke-linejoin="round"/>
<path d="M42.1802 17.8012V22.0727" stroke="black" stroke-width="2.25" stroke-miterlimit="10" stroke-linecap="round" stroke-linejoin="round"/>
<path d="M29.4101 68.1464L33.5204 47.654L13.0281 51.7643L17.9665 56.7028L9.1743 65.495L15.6794 72.0001L24.4716 63.2079L29.4101 68.1464Z" fill="#F7E6C5"/>
<path d="M29.4101 68.1464L33.5204 47.654L13.0281 51.7643L17.9665 56.7028L9.1743 65.495L15.6794 72.0001L24.4716 63.2079L29.4101 68.1464Z" stroke="black" stroke-width="2.5" stroke-miterlimit="10" stroke-linecap="round" stroke-linejoin="round"/>
</svg>
