<svg width="78" height="78" viewBox="0 0 78 78" fill="none" xmlns="http://www.w3.org/2000/svg">
<rect x="56" y="29" width="20" height="20" fill="#F7E6C5"/>
<path d="M72.8706 27.357H5.12941C2.301 27.357 0 29.6581 0 32.4864V45.5134C0 48.3419 2.30115 50.6429 5.12941 50.6429H72.8706C75.699 50.6429 78 48.3417 78 45.5134V32.4864C78 29.6581 75.6988 27.357 72.8706 27.357ZM54.714 48.2003H5.12941C3.64787 48.2003 2.44253 46.995 2.44253 45.5134V32.4864C2.44253 31.0048 3.64787 29.7995 5.12941 29.7995H54.714V48.2003ZM75.5575 45.5136C75.5575 46.9951 74.3521 48.2005 72.8706 48.2005H57.1566V29.7996H72.8706C74.3521 29.7996 75.5575 31.005 75.5575 32.4865V45.5136Z" fill="#0B0F11"/>
<path d="M72.4314 43.3473L69.4396 40.3556C69.9116 39.5798 70.1837 38.6697 70.1837 37.6972C70.1837 34.8687 67.8825 32.5677 65.0543 32.5677C62.2259 32.5677 59.9249 34.8689 59.9249 37.6972C59.9249 40.5254 62.226 42.8266 65.0543 42.8266C66.0267 42.8266 66.9368 42.5545 67.7127 42.0825L70.7044 45.0743C70.9428 45.3127 71.2554 45.432 71.5679 45.432C71.8803 45.432 72.193 45.3128 72.4314 45.0743C72.9084 44.5974 72.9084 43.8241 72.4314 43.3473ZM65.0543 40.3842C63.5727 40.3842 62.3674 39.1789 62.3674 37.6973C62.3674 36.2158 63.5727 35.0104 65.0543 35.0104C66.5358 35.0104 67.7412 36.2158 67.7412 37.6973C67.7412 39.1789 66.5358 40.3842 65.0543 40.3842Z" fill="#0B0F11"/>
<path d="M6.4321 32.5679C5.75768 32.5679 5.21076 33.1147 5.21076 33.7892V44.2109C5.21076 44.8853 5.75752 45.4323 6.4321 45.4323C7.10653 45.4323 7.65344 44.8855 7.65344 44.2109V33.7892C7.65344 33.1147 7.10668 32.5679 6.4321 32.5679Z" fill="#0B0F11"/>
</svg>
