<svg width="32" height="32" viewBox="0 0 32 32" fill="none" xmlns="http://www.w3.org/2000/svg">
<ellipse cx="16" cy="6.97448" rx="2.46154" ry="2.46154" fill="#F7E6C5"/>
<path d="M19.8192 27.6803C21.3693 27.6803 22.6259 26.4237 22.6259 24.8736C22.6259 23.3235 21.3693 22.0669 19.8192 22.0669C18.2691 22.0669 17.0125 23.3235 17.0125 24.8736C17.0125 26.4237 18.2691 27.6803 19.8192 27.6803Z" stroke="#1F3143" stroke-width="1.75" stroke-miterlimit="10" stroke-linecap="round" stroke-linejoin="round"/>
<path d="M27.4573 27.6803C29.0074 27.6803 30.264 26.4237 30.264 24.8736C30.264 23.3235 29.0074 22.0669 27.4573 22.0669C25.9072 22.0669 24.6506 23.3235 24.6506 24.8736C24.6506 26.4237 25.9072 27.6803 27.4573 27.6803Z" stroke="#1F3143" stroke-width="1.75" stroke-miterlimit="10" stroke-linecap="round" stroke-linejoin="round"/>
<path d="M23.6384 18.8092C25.1885 18.8092 26.4451 17.5526 26.4451 16.0025C26.4451 14.4524 25.1885 13.1958 23.6384 13.1958C22.0883 13.1958 20.8317 14.4524 20.8317 16.0025C20.8317 17.5526 22.0883 18.8092 23.6384 18.8092Z" stroke="#1F3143" stroke-width="1.75" stroke-miterlimit="10" stroke-linecap="round" stroke-linejoin="round"/>
<path d="M4.54271 27.682C6.09282 27.682 7.34943 26.4254 7.34943 24.8753C7.34943 23.3252 6.09282 22.0686 4.54271 22.0686C2.9926 22.0686 1.73599 23.3252 1.73599 24.8753C1.73599 26.4254 2.9926 27.682 4.54271 27.682Z" stroke="#1F3143" stroke-width="1.75" stroke-miterlimit="10" stroke-linecap="round" stroke-linejoin="round"/>
<path d="M12.1808 27.682C13.7309 27.682 14.9875 26.4254 14.9875 24.8753C14.9875 23.3252 13.7309 22.0686 12.1808 22.0686C10.6307 22.0686 9.37408 23.3252 9.37408 24.8753C9.37408 26.4254 10.6307 27.682 12.1808 27.682Z" stroke="#1F3143" stroke-width="1.75" stroke-miterlimit="10" stroke-linecap="round" stroke-linejoin="round"/>
<path d="M8.36193 18.811C9.91203 18.811 11.1686 17.5543 11.1686 16.0042C11.1686 14.4541 9.91203 13.1975 8.36193 13.1975C6.81182 13.1975 5.55521 14.4541 5.55521 16.0042C5.55521 17.5543 6.81182 18.811 8.36193 18.811Z" stroke="#1F3143" stroke-width="1.75" stroke-miterlimit="10" stroke-linecap="round" stroke-linejoin="round"/>
<path d="M16.0534 9.95045C17.6034 9.95045 18.8598 8.69398 18.8598 7.14405C18.8598 5.59411 17.6034 4.33765 16.0534 4.33765C14.5035 4.33765 13.247 5.59411 13.247 7.14405C13.247 8.69398 14.5035 9.95045 16.0534 9.95045Z" stroke="#1F3143" stroke-width="1.75" stroke-miterlimit="10" stroke-linecap="round" stroke-linejoin="round"/>
<path d="M21.8144 13.8724L17.8774 9.27368" stroke="#1F3143" stroke-width="1.75" stroke-miterlimit="10" stroke-linecap="round" stroke-linejoin="round"/>
<path d="M14.215 9.26147L10.2 13.8868" stroke="#1F3143" stroke-width="1.75" stroke-miterlimit="10" stroke-linecap="round" stroke-linejoin="round"/>
<path d="M7.25216 18.582L5.6528 22.2972" stroke="#1F3143" stroke-width="1.75" stroke-miterlimit="10" stroke-linecap="round" stroke-linejoin="round"/>
<path d="M11.071 22.2976L9.47168 18.5818" stroke="#1F3143" stroke-width="1.75" stroke-miterlimit="10" stroke-linecap="round" stroke-linejoin="round"/>
<path d="M22.528 18.5803L20.9286 22.2962" stroke="#1F3143" stroke-width="1.75" stroke-miterlimit="10" stroke-linecap="round" stroke-linejoin="round"/>
<path d="M26.3475 22.2962L24.7481 18.5803" stroke="#1F3143" stroke-width="1.75" stroke-miterlimit="10" stroke-linecap="round" stroke-linejoin="round"/>
</svg>
