<svg width="32" height="32" viewBox="0 0 32 32" fill="none" xmlns="http://www.w3.org/2000/svg">
<rect x="22.9744" y="19.6924" width="6.97436" height="10.2564" fill="#F7E6C5"/>
<path d="M18.126 10.5264L19.4591 14.5841C19.9443 15.9837 21.4236 16.7756 22.8573 16.4031L23.8095 16.1557L21.4036 9.2146" stroke="#1F3143" stroke-width="1.75" stroke-miterlimit="10" stroke-linecap="round" stroke-linejoin="round"/>
<path d="M23.9983 6.73389L25.0064 7.22299C26.3391 7.86966 27.945 7.38356 28.6954 6.10634L29.1938 5.25809L22.5844 2.05127L14.6325 3.2701C13.9486 3.37493 13.2838 3.57991 12.6597 3.87841L2.81925 9.223L2.08011 9.526" stroke="#1F3143" stroke-width="1.75" stroke-miterlimit="10" stroke-linecap="round" stroke-linejoin="round"/>
<path d="M2.08011 17.5461H4.64466L5.3414 18.8081C5.98651 19.9765 6.93392 20.9499 8.08448 21.6264C8.98482 22.1557 9.99006 22.4816 11.0297 22.5813L12.5971 22.7316C13.5892 22.8268 14.5431 23.1629 15.3757 23.7107L18.6225 25.847L18.9793 25.3193C19.989 23.8257 19.6693 21.8053 18.2478 20.6964L13.5958 17.0977L13.2016 12.4673L21.4035 9.21451L25.3874 12.6767C26.5617 13.5797 28.2328 13.4287 29.2261 12.3297L29.8448 11.6854L22.223 5.29321L13.9582 7.22657" stroke="#1F3143" stroke-width="1.75" stroke-miterlimit="10" stroke-linecap="round" stroke-linejoin="round"/>
<path d="M29.9199 19.5417H22.9888V23.0177H29.9199V19.5417Z" stroke="#1F3143" stroke-width="1.75" stroke-miterlimit="10" stroke-linecap="round" stroke-linejoin="round"/>
<path d="M29.9199 23.0073V26.4833H22.9888V23.0073" stroke="#1F3143" stroke-width="1.75" stroke-miterlimit="10" stroke-linecap="round" stroke-linejoin="round"/>
<path d="M29.9199 26.4729V29.9489H22.9888V26.4729" stroke="#1F3143" stroke-width="1.75" stroke-miterlimit="10" stroke-linecap="round" stroke-linejoin="round"/>
</svg>
