<svg width="32" height="32" viewBox="0 0 32 32" fill="none" xmlns="http://www.w3.org/2000/svg">
<path d="M10.6607 20.4316C10.1812 20.4303 9.7062 20.5241 9.26319 20.7076C8.8202 20.8911 8.41799 21.1607 8.07982 21.5006C8.07977 21.5007 8.07971 21.5007 8.07965 21.5008L4.00844 25.5715L4.00842 25.5715L19.3175 20.5816C19.8251 20.5816 20.312 20.7832 20.6709 21.1422C21.0298 21.5011 21.2315 21.9879 21.2315 22.4956C21.2315 23.0032 21.0298 23.49 20.6709 23.849C20.312 24.2079 19.8251 24.4096 19.3175 24.4096H13.6605C13.5279 24.4096 13.4007 24.3569 13.3069 24.2631C13.2132 24.1693 13.1605 24.0422 13.1605 23.9096C13.1605 23.7769 13.2132 23.6498 13.3069 23.556C13.4007 23.4622 13.5279 23.4096 13.6605 23.4096H19.3175C19.5599 23.4096 19.7924 23.3133 19.9638 23.1419C20.1352 22.9704 20.2315 22.738 20.2315 22.4956C20.2315 22.2531 20.1352 22.0207 19.9638 21.8493C19.7924 21.6779 19.5599 21.5816 19.3175 21.5816H10.6605M10.6607 20.4316C10.6608 20.4316 10.6608 20.4316 10.6609 20.4316L10.6605 20.5816V20.4316H10.6607ZM10.6607 20.4316H19.3175C19.8649 20.4316 20.3899 20.649 20.777 21.0361C21.164 21.4232 21.3815 21.9481 21.3815 22.4956C21.3815 23.043 21.164 23.5679 20.777 23.955C20.3899 24.3421 19.8649 24.5596 19.3175 24.5596H13.6605C13.4881 24.5596 13.3228 24.4911 13.2009 24.3692C13.079 24.2473 13.0105 24.0819 13.0105 23.9096C13.0105 23.7372 13.079 23.5718 13.2009 23.4499C13.3228 23.328 13.4881 23.2596 13.6605 23.2596H19.3175C19.5201 23.2596 19.7145 23.1791 19.8577 23.0358C20.001 22.8925 20.0815 22.6982 20.0815 22.4956C20.0815 22.2929 20.001 22.0986 19.8577 21.9553C19.7145 21.812 19.5201 21.7316 19.3175 21.7316H10.6607M10.6607 21.7316C10.6608 21.7316 10.6608 21.7316 10.6609 21.7316L10.6605 21.5816M10.6607 21.7316C10.0378 21.7333 9.44069 21.9806 8.99893 22.4198L10.6605 21.5816M10.6607 21.7316H10.6605V21.5816M4.92808 26.4906L8.99877 22.4199L4.4685 26.5311L4.46853 26.6811C4.64091 26.681 4.80621 26.6125 4.92808 26.4906ZM4.92808 26.4906L4.82279 26.3853L4.92807 26.4906L4.92808 26.4906Z" fill="#1F3143" stroke="#1F3143" stroke-width="0.3"/>
<path d="M8.60492 30.1675L8.60493 30.1674L9.84715 28.9252C9.84716 28.9252 9.84718 28.9252 9.84719 28.9252C10.1854 28.5852 10.5876 28.3156 11.0307 28.1321C11.4738 27.9486 11.9488 27.8547 12.4284 27.856M8.60492 30.1675L12.4284 27.856M8.60492 30.1675C8.51404 30.2584 8.45216 30.3742 8.42709 30.5002C8.40202 30.6263 8.41489 30.757 8.46408 30.8757C8.51326 30.9945 8.59655 31.096 8.70342 31.1674C8.81018 31.2388 8.93569 31.2769 9.06409 31.277M8.60492 30.1675L12.4284 29.156M12.4284 27.856H17.721H17.7214C18.0302 27.8569 18.336 27.7965 18.6212 27.6783C18.9065 27.5602 19.1654 27.3866 19.3831 27.1677L19.3834 27.1674L27.0114 19.5394C27.1709 19.38 27.2605 19.1637 27.2605 18.9383C27.2605 18.7128 27.1709 18.4965 27.0114 18.3371C26.852 18.1776 26.6357 18.0881 26.4102 18.0881C26.1848 18.0881 25.9685 18.1776 25.8091 18.3371M12.4284 27.856L25.8091 18.3371M25.8091 18.3371C25.8091 18.3371 25.8091 18.3371 25.8091 18.3371L21.1916 22.9561L21.1897 22.9579L21.1897 22.9579C21.0671 23.0763 20.9029 23.1418 20.7325 23.1403C20.5621 23.1389 20.399 23.0705 20.2785 22.95C20.158 22.8295 20.0896 22.6664 20.0882 22.496C20.0867 22.3256 20.1522 22.1614 20.2706 22.0388L20.2724 22.0369L20.2724 22.037L24.8899 17.419L24.9957 17.5247L24.8899 17.4189C25.2931 17.0157 25.84 16.7892 26.4102 16.7892C26.9805 16.7892 27.5274 17.0157 27.9306 17.4189C28.3338 17.8222 28.5603 18.369 28.5603 18.9393C28.5603 19.5095 28.3338 20.0564 27.9306 20.4596L27.8245 20.3535L27.9306 20.4596L20.3029 28.0863C20.3028 28.0863 20.3028 28.0864 20.3027 28.0864C19.9645 28.4266 19.5621 28.6964 19.1189 28.88C18.6757 29.0636 18.2004 29.1574 17.7206 29.156M25.8091 18.3371L17.7206 29.156M17.7206 29.156H12.4284M17.7206 29.156H12.4284M12.4284 29.156C11.8054 29.1577 11.2082 29.405 10.7664 29.8442C10.7664 29.8443 10.7663 29.8443 10.7663 29.8444L9.52439 31.0863C9.52435 31.0863 9.52431 31.0863 9.52427 31.0864C9.464 31.147 9.39232 31.195 9.31336 31.2278C9.23434 31.2605 9.14962 31.2772 9.06409 31.277M9.06409 31.277L9.0645 31.127L9.06447 31.277C9.06434 31.277 9.06422 31.277 9.06409 31.277Z" fill="#1F3143" stroke="#1F3143" stroke-width="0.3"/>
<ellipse cx="18.2564" cy="10.8718" rx="6.76923" ry="6.76923" fill="#F7E6C5"/>
<path d="M17.5 18.15H17.5002C19.7935 18.1474 21.9921 17.2353 23.6137 15.6137C25.2353 13.9921 26.1474 11.7935 26.15 9.50017V9.5C26.15 7.7892 25.6427 6.11681 24.6922 4.69432C23.7417 3.27184 22.3908 2.16314 20.8102 1.50845C19.2296 0.853748 17.4904 0.682449 15.8125 1.01621C14.1345 1.34997 12.5933 2.17381 11.3835 3.38353C10.1738 4.59325 9.34997 6.13454 9.01621 7.81247C8.68245 9.49041 8.85375 11.2296 9.50845 12.8102C10.1631 14.3908 11.2718 15.7417 12.6943 16.6922C14.1168 17.6427 15.7892 18.15 17.5 18.15ZM13.4166 3.3887C14.6252 2.58109 16.0463 2.15002 17.4999 2.15C19.4486 2.15224 21.3168 2.92733 22.6948 4.30525C24.0727 5.6832 24.8478 7.55146 24.85 9.50017C24.85 10.9538 24.4189 12.3748 23.6113 13.5834C22.8037 14.7921 21.6558 15.7342 20.3127 16.2905C18.9697 16.8468 17.4919 16.9924 16.0661 16.7088C14.6403 16.4252 13.3307 15.7252 12.3028 14.6972C11.2749 13.6693 10.5748 12.3597 10.2912 10.9339C10.0076 9.50816 10.1532 8.03032 10.7095 6.68728C11.2658 5.34424 12.2079 4.19633 13.4166 3.3887Z" fill="#1F3143" stroke="#1F3143" stroke-width="0.3"/>
</svg>
