<svg width="32" height="32" viewBox="0 0 32 32" fill="none" xmlns="http://www.w3.org/2000/svg">
<path d="M22.9081 14.4339C22.4971 14.0199 22.0091 13.6916 21.4721 13.4675C20.935 13.2435 20.3593 13.1282 19.7779 13.1282C19.1965 13.1282 18.6208 13.2435 18.0837 13.4675C17.5466 13.6916 17.0587 14.0199 16.6477 14.4339L15.7947 15.2926L14.9417 14.4339C14.1115 13.5981 12.9855 13.1286 11.8115 13.1286C10.6374 13.1286 9.51142 13.5981 8.68123 14.4339C7.85104 15.2696 7.38464 16.4032 7.38464 17.5851C7.38464 18.767 7.85104 19.9005 8.68123 20.7363L9.5342 21.595L15.7947 27.8974L22.0552 21.595L22.9081 20.7363C23.3193 20.3225 23.6455 19.8313 23.8681 19.2906C24.0906 18.7499 24.2052 18.1704 24.2052 17.5851C24.2052 16.9998 24.0906 16.4203 23.8681 15.8796C23.6455 15.3389 23.3193 14.8476 22.9081 14.4339Z" fill="#F7E6C5"/>
<path d="M27.7867 6.14666C27.1057 5.46533 26.2971 4.92485 25.4071 4.5561C24.5172 4.18735 23.5633 3.99756 22.6 3.99756C21.6367 3.99756 20.6828 4.18735 19.7929 4.5561C18.9029 4.92485 18.0943 5.46533 17.4133 6.14666L16 7.55999L14.5867 6.14666C13.2111 4.77107 11.3454 3.99827 9.4 3.99827C7.45462 3.99827 5.58892 4.77107 4.21333 6.14666C2.83774 7.52225 2.06494 9.38795 2.06494 11.3333C2.06494 13.2787 2.83774 15.1444 4.21333 16.52L5.62666 17.9333L16 28.3067L26.3733 17.9333L27.7867 16.52C28.468 15.839 29.0085 15.0304 29.3772 14.1405C29.746 13.2505 29.9358 12.2966 29.9358 11.3333C29.9358 10.37 29.746 9.41613 29.3772 8.52619C29.0085 7.63624 28.468 6.82767 27.7867 6.14666Z" stroke="#1F3143" stroke-width="1.75" stroke-linecap="round" stroke-linejoin="round"/>
</svg>
