<svg width="138" height="58" viewBox="0 0 138 58" fill="none" xmlns="http://www.w3.org/2000/svg">
<g clip-path="url(#clip0_216_402)">
<path d="M32.0499 10.988H44.5428V13.3737H39.7379V26.2564H36.8549V13.3737H32.0499V10.988ZM43.8221 15.0437H46.2246V17.1908C46.2246 16.9523 46.4648 16.7137 46.7051 16.2365C46.9453 15.7594 47.1856 15.7594 47.4258 15.5208C47.6661 15.2823 48.1466 15.0437 48.3868 15.0437C48.6271 14.8051 49.1076 14.8051 49.5881 14.8051C49.8283 14.8051 50.0686 14.8051 50.0686 14.8051H50.3088V17.1908C50.0686 17.1908 50.0686 17.1908 49.8283 17.1908C49.5881 17.1908 49.5881 17.1908 49.3478 17.1908C48.8673 17.1908 48.6271 17.1908 48.1466 17.4294C47.6661 17.668 47.4258 17.9065 47.1856 18.1451C46.9453 18.3837 46.7051 18.8608 46.4648 19.3379C46.2246 19.8151 46.2246 20.2922 46.2246 21.0079V26.2564H43.8221V15.0437ZM61.6006 26.2564H59.1981V24.825C58.9578 25.3022 58.4773 25.7793 57.7566 26.2564C57.2761 26.495 56.5553 26.7336 55.8346 26.7336C54.3931 26.7336 53.4321 26.495 52.7113 25.5407C51.9906 24.5864 51.7503 23.6322 51.7503 22.2008V15.2823H54.1528V21.9622C54.1528 22.9165 54.3931 23.6322 54.6333 24.1093C55.1138 24.5864 55.5943 24.825 56.3151 24.825C56.7956 24.825 57.2761 24.825 57.5163 24.5864C57.7566 24.3479 58.2371 24.1093 58.2371 23.8707C58.4773 23.6322 58.7176 23.3936 58.7176 22.9165C58.7176 22.4393 58.9578 22.2008 58.9578 21.7236V15.2823H61.3603V26.2564H61.6006ZM65.6848 22.6779C65.6848 23.3936 65.9251 23.8707 66.4056 24.1093C66.8861 24.3479 67.3666 24.5864 68.0873 24.5864C68.3276 24.5864 68.5678 24.5864 68.8081 24.5864C69.0483 24.5864 69.2886 24.5864 69.5288 24.3479C69.7691 24.3479 70.0093 24.1093 70.2496 23.8707C70.4898 23.6322 70.4898 23.3936 70.4898 23.155C70.4898 22.9165 70.2496 22.6779 70.2496 22.4393C70.0093 22.2008 69.7691 22.2008 69.5288 21.9622C69.2886 21.9622 68.8081 21.7236 68.3276 21.7236C67.8471 21.7236 67.3666 21.4851 67.1263 21.4851C66.6458 21.4851 66.1653 21.2465 65.9251 21.0079C65.6848 20.7693 65.2043 20.7693 64.7238 20.5308C64.4836 20.2922 64.0031 20.0536 64.0031 19.5765C63.7628 19.0994 63.7628 18.6222 63.7628 18.1451C63.7628 17.4294 64.0031 16.9523 64.2433 16.7137C64.4836 16.4751 64.9641 15.998 65.4446 15.7594C65.9251 15.5208 66.4056 15.2823 66.8861 15.2823C67.3666 15.2823 68.0873 15.0437 68.5678 15.0437C69.0483 15.0437 69.7691 15.0437 70.2496 15.2823C70.7301 15.2823 71.2106 15.5208 71.6911 15.7594C72.1716 15.998 72.4118 16.4751 72.6521 16.7137C72.8923 17.1908 73.1325 17.668 73.1325 18.3837H70.4898C70.4898 17.9065 70.0093 17.4294 69.7691 17.1908C69.0483 16.9523 68.5678 16.7137 68.0873 16.7137C67.8471 16.7137 67.6068 16.7137 67.3666 16.7137C67.1263 16.7137 66.8861 16.7137 66.6458 16.9523C66.4056 16.9523 66.1653 17.1908 66.1653 17.1908C65.9251 17.4294 65.9251 17.4294 65.9251 17.668C65.9251 17.9065 65.9251 18.1451 66.1653 18.3837C66.4056 18.6222 66.6458 18.6222 66.8861 18.8608C67.1263 18.8608 67.6068 19.0994 68.0873 19.0994C68.5678 19.0994 69.0483 19.3379 69.5288 19.3379C70.0093 19.3379 70.4898 19.5765 70.73 19.8151C71.2105 20.0536 71.4508 20.0536 71.9313 20.2922C72.4118 20.5308 72.6521 20.7693 72.6521 21.2465C72.8923 21.7236 72.8923 21.9622 72.8923 22.6779C72.8923 23.3936 72.652 23.8707 72.4118 24.3479C72.1715 24.825 71.691 25.0636 71.2106 25.5407C70.9703 26.0179 70.4898 26.2564 70.0093 26.2564C69.5288 26.2564 68.8081 26.495 68.3276 26.495C67.6068 26.495 66.8861 26.495 66.4056 26.2564C65.9251 26.0179 65.2043 25.7793 64.9641 25.5407C64.4836 25.3022 64.2433 24.825 64.0031 24.3479C63.5226 23.8707 63.2823 23.3936 63.2823 22.6779H65.6848ZM73.8533 15.0437H75.7753V11.9423H78.1778V15.2823H80.34V17.1908H78.1778V23.155C78.1778 23.3936 78.1778 23.6322 78.1778 23.8707C78.1778 24.1093 78.1778 24.1093 78.418 24.3479C78.6583 24.5864 78.6583 24.5864 78.6583 24.5864C78.8985 24.5864 79.1388 24.5864 79.379 24.5864C79.6193 24.5864 79.6193 24.5864 79.8595 24.5864C80.0998 24.5864 80.0998 24.5864 80.34 24.5864V26.2564C80.0998 26.2564 79.8595 26.2564 79.6193 26.2564C79.379 26.2564 79.1388 26.2564 78.8985 26.2564C78.1778 26.2564 77.6973 26.2564 77.457 26.0179C76.9765 26.0179 76.7363 25.7793 76.496 25.5407C76.2558 25.3022 76.0155 25.0636 76.0155 24.5864C76.0155 24.3479 75.7753 23.8707 75.7753 23.3936V16.9523H73.8533V15.0437ZM82.0218 15.0437H84.4243V16.7137C84.6645 15.998 85.145 15.5208 85.8658 15.2823C86.5865 15.0437 87.067 14.8051 87.7878 14.8051C88.7488 14.8051 89.4695 15.0437 90.1903 15.2823C90.911 15.5208 91.3915 15.998 91.872 16.4751C92.3525 16.9523 92.5928 17.668 92.833 18.3837C93.0733 19.0994 93.0733 19.8151 93.0733 20.7694C93.0733 21.4851 93.0733 22.2008 92.833 22.9165C92.5928 23.6322 92.3525 24.1093 91.872 24.825C91.3915 25.3022 90.911 25.7793 90.4305 26.0179C89.7098 26.2564 89.2293 26.495 88.2683 26.495C88.028 26.495 87.5475 26.495 87.3073 26.495C87.067 26.495 86.5865 26.2564 86.3463 26.2564C86.106 26.0179 85.6255 26.0179 85.3853 25.7793C85.145 25.5407 84.9048 25.3022 84.6645 25.0636V30.5507H82.262V15.0437H82.0218ZM90.6708 20.7694C90.6708 20.2922 90.6708 19.8151 90.4305 19.3379C90.1903 18.8608 90.1903 18.3837 89.95 18.1451C89.7098 17.9065 89.4695 17.4294 88.989 17.1908C88.5085 16.9523 88.2683 16.9523 87.5475 16.9523C86.5865 16.9523 85.6255 17.1908 85.145 17.9065C84.6645 18.6222 84.4243 19.5765 84.4243 20.7694C84.4243 21.2465 84.4243 21.9622 84.6645 22.2008C84.9048 22.6779 84.9048 23.155 85.3853 23.3936C85.6255 23.6322 85.8658 24.1093 86.3463 24.1093C86.8268 24.3479 87.067 24.3479 87.5475 24.3479C88.028 24.3479 88.5085 24.3479 88.989 24.1093C89.4695 23.8707 89.7098 23.6322 89.95 23.155C90.1903 22.6779 90.4305 22.4393 90.4305 21.9622C90.4305 21.7236 90.6708 21.2465 90.6708 20.7694ZM94.9953 10.988H97.3978V13.3737H94.9953V10.988ZM94.9953 15.0437H97.3978V26.2564H94.9953V15.0437ZM99.56 10.988H101.963V26.2564H99.56V10.988ZM109.41 26.495C108.449 26.495 107.728 26.2564 107.008 26.0179C106.287 25.7793 105.806 25.3022 105.326 24.825C104.845 24.3479 104.365 23.6322 104.125 22.9165C103.884 22.2008 103.644 21.4851 103.644 20.5308C103.644 19.5765 103.884 18.8608 104.125 18.1451C104.365 17.4294 104.845 16.7137 105.326 16.2365C105.806 15.7594 106.287 15.2823 107.008 15.0437C107.728 14.8051 108.449 14.5666 109.41 14.5666C110.371 14.5666 111.092 14.8051 111.813 15.0437C112.533 15.2823 113.014 15.7594 113.494 16.2365C113.975 16.7137 114.455 17.4294 114.696 18.1451C114.936 18.8608 115.176 19.5765 115.176 20.5308C115.176 21.4851 114.936 22.2008 114.696 22.9165C114.455 23.6322 113.975 24.3479 113.494 24.825C113.014 25.3022 112.533 25.7793 111.813 26.0179C111.092 26.2564 110.371 26.495 109.41 26.495ZM109.41 24.5864C109.891 24.5864 110.371 24.5864 110.852 24.3479C111.332 24.1093 111.572 23.8707 111.813 23.3936C112.053 22.9165 112.293 22.6779 112.293 22.2008C112.293 21.7236 112.533 21.2465 112.533 20.7694C112.533 20.2922 112.533 19.8151 112.293 19.3379C112.293 18.8608 112.053 18.3837 111.813 18.1451C111.572 17.9065 111.332 17.4294 110.852 17.1908C110.371 16.9523 109.891 16.9523 109.41 16.9523C108.93 16.9523 108.449 16.9523 107.969 17.1908C107.488 17.4294 107.248 17.668 107.008 18.1451C106.767 18.6222 106.527 18.8608 106.527 19.3379C106.527 19.8151 106.287 20.2922 106.287 20.7694C106.287 21.2465 106.287 21.7236 106.527 22.2008C106.527 22.6779 106.767 23.155 107.008 23.3936C107.248 23.8707 107.488 24.1093 107.969 24.3479C108.449 24.3479 108.93 24.5864 109.41 24.5864ZM115.897 15.0437H117.819V11.9423H120.221V15.2823H122.384V17.1908H120.221V23.155C120.221 23.3936 120.221 23.6322 120.221 23.8707C120.221 24.1093 120.221 24.1093 120.462 24.3479C120.702 24.5864 120.702 24.5864 120.702 24.5864C120.942 24.5864 121.182 24.5864 121.423 24.5864C121.663 24.5864 121.663 24.5864 121.903 24.5864C122.143 24.5864 122.143 24.5864 122.384 24.5864V26.2564C122.143 26.2564 121.903 26.2564 121.663 26.2564C121.423 26.2564 121.182 26.2564 120.942 26.2564C120.221 26.2564 119.741 26.2564 119.501 26.0179C119.02 26.0179 118.78 25.7793 118.54 25.5407C118.299 25.3022 118.059 25.0636 118.059 24.5864C118.059 24.3479 117.819 23.8707 117.819 23.3936V16.9523H115.897V15.0437Z" fill="white"/>
<path d="M29.1669 10.988H17.8752L14.5117 0.252441L10.9079 10.988H-0.143555L8.74568 17.4294L5.38219 28.165L14.5117 21.485L23.4009 28.165L20.0374 17.4294L29.1669 10.988Z" fill="#00B67A"/>
<path d="M20.7581 19.815L20.0374 17.4293L14.5117 21.485L20.7581 19.815Z" fill="#005128"/>
<path d="M22.9204 34.8448H-0.143555V57.7474H22.9204V34.8448Z" fill="#00B67A"/>
<path d="M47.6661 34.8448H24.6022V57.7474H47.6661V34.8448Z" fill="#00B67A"/>
<path d="M72.6521 34.8448H49.5881V57.7474H72.6521V34.8448Z" fill="#00B67A"/>
<path d="M97.3978 34.8448H74.3338V57.7474H97.3978V34.8448Z" fill="#00B67A"/>
<path d="M122.384 34.8448H99.3198V57.7474H122.384V34.8448Z" fill="white" fill-opacity="0.1"/>
<path d="M99.3198 34.8448H110.852V57.5089H99.3198V34.8448Z" fill="#00B67A"/>
<path d="M11.1482 50.1133L14.752 49.159L16.1934 53.6918L11.1482 50.1133ZM19.3167 44.3876H13.0702L11.1482 38.662L9.22621 44.3876H3.21997L8.26521 47.9662L6.34322 53.6918L11.3885 50.1133L14.5117 47.9662L19.3167 44.3876Z" fill="white"/>
<path d="M36.1341 50.1133L39.7379 49.159L41.1794 53.6918L36.1341 50.1133ZM44.0624 44.3876H37.8159L35.8939 38.662L33.9719 44.3876H27.7254L32.7706 47.9662L30.8486 53.6918L35.8939 50.1133L39.0171 47.9662L44.0624 44.3876Z" fill="white"/>
<path d="M61.1201 50.1133L64.7238 49.159L66.1653 53.6918L61.1201 50.1133ZM69.0483 44.3876H62.8018L60.8799 38.662L58.9579 44.3876H52.7114L57.7566 47.9662L56.0749 53.6918L61.1201 50.1133L64.2433 47.9662L69.0483 44.3876Z" fill="white"/>
<path d="M85.8658 50.1133L89.4696 49.159L90.9111 53.6918L85.8658 50.1133ZM94.0343 44.3876H87.7878L85.8658 38.662L83.9438 44.3876H77.6973L82.7426 47.9662L80.8206 53.6918L85.8658 50.1133L88.9891 47.9662L94.0343 44.3876Z" fill="white"/>
<path d="M110.852 50.1133L114.456 49.159L115.897 53.6918L110.852 50.1133ZM118.78 44.3876H112.534L110.612 38.662L108.93 44.3876H102.683L107.729 47.9662L105.807 53.6918L110.852 50.1133L113.975 47.9662L118.78 44.3876Z" fill="white"/>
</g>
<defs>
<clipPath id="clip0_216_402">
<rect width="138" height="58" fill="white"/>
</clipPath>
</defs>
</svg>
